<?xml version="1.0" encoding="utf-8"?>
<!-- Generator: Adobe Illustrator 27.2.0, SVG Export Plug-In . SVG Version: 6.00 Build 0)  -->
<svg version="1.1" id="Layer_1" xmlns="http://www.w3.org/2000/svg" xmlns:xlink="http://www.w3.org/1999/xlink" x="0px" y="0px"
	 viewBox="0 0 16 16" style="enable-background:new 0 0 16 16;" xml:space="preserve">
<path d="M8,0c0.6,0,1,0.4,1,1v5.3l4.6-2.7C14.1,3.4,14.7,3.5,15,4s0.1,1.1-0.4,1.4l0,0L10,8l4.6,2.6c0.5,0.3,0.6,0.9,0.4,1.4
	c-0.3,0.5-0.9,0.6-1.4,0.4l0,0L9,9.8V15c0,0.6-0.4,1-1,1s-1-0.4-1-1V9.7l-4.6,2.6c-0.5,0.3-1.1,0.1-1.4-0.4s-0.1-1.1,0.4-1.4l0,0
	L6,7.9L1.4,5.3C0.9,5,0.8,4.4,1,3.9c0.3-0.5,0.9-0.6,1.4-0.4L7,6.1V1C7,0.4,7.5,0,8,0z"/>
</svg>
