<?xml version="1.0" encoding="utf-8"?>
<!-- Generator: Adobe Illustrator 27.2.0, SVG Export Plug-In . SVG Version: 6.00 Build 0)  -->
<svg version="1.1" id="Layer_1" xmlns="http://www.w3.org/2000/svg" xmlns:xlink="http://www.w3.org/1999/xlink" x="0px" y="0px"
	 viewBox="0 0 1280 400" style="enable-background:new 0 0 1280 400;" xml:space="preserve">
<g>
	<g>
		<path d="M72.7,91.8v5.5l5.3-5.5l-1.7-0.4v-0.8h5v0.8l-1.7,0.4l-4.4,4.4l5.7,6.9l1.6,0.4v0.8h-5.3v-0.8l1.3-0.4l-4.5-5.6l-1.2,1.1
			v4.4l1.6,0.4v0.8H69v-0.8l1.8-0.4V91.8L69,91.4v-0.8h5.3v0.8L72.7,91.8z"/>
		<path d="M84.2,103.1V90.6l-1.5-0.4v-0.8h3.3v13.7l1.5,0.4v0.8h-4.8v-0.8L84.2,103.1z"/>
		<path d="M88.8,102c0-1,0.5-1.8,1.4-2.3s2.5-1,4.6-1.3c-0.1-0.7-0.1-1.3-0.2-1.7c-0.1-0.4-0.2-0.8-0.3-1c-0.2-0.3-0.4-0.6-0.7-0.7
			c-0.3-0.2-0.7-0.2-1-0.2c-0.4,0-0.7,0.1-1,0.2c-0.3,0.1-0.5,0.3-0.6,0.5c0.2,0.1,0.3,0.3,0.4,0.5s0.1,0.4,0.1,0.6
			c0,0.3-0.1,0.6-0.3,0.8c-0.2,0.2-0.5,0.3-0.8,0.3c-0.3,0-0.6-0.1-0.8-0.3s-0.3-0.5-0.3-0.9c0-0.5,0.2-1,0.6-1.3
			c0.4-0.4,0.8-0.6,1.4-0.8c0.6-0.2,1.1-0.3,1.7-0.3c0.5,0,1,0.1,1.4,0.2s0.8,0.4,1.1,0.7c0.8,0.8,1.2,2.2,1.2,4.2v2.8
			c0,0.6,0,1.1,0.1,1.3c0.1,0.2,0.3,0.4,0.5,0.4h0.9v0.6c-0.9,0.4-1.6,0.6-2.1,0.6c-0.4,0-0.7-0.1-0.8-0.4c-0.1-0.3-0.2-0.8-0.2-1.6
			H95c-0.4,0.6-0.9,1.2-1.6,1.5s-1.3,0.6-2.1,0.6c-0.8,0-1.4-0.2-1.9-0.6C89,103.3,88.8,102.8,88.8,102z M92.2,103.3
			c0.4,0,0.7-0.1,1.1-0.3s0.7-0.4,1-0.8c0.2-0.3,0.4-0.6,0.4-0.9c0.1-0.3,0.1-0.8,0.1-1.2c0-0.2,0-0.4,0-0.6c0-0.2,0-0.4-0.1-0.6
			c-1,0.2-1.8,0.4-2.4,0.7s-1,0.5-1.2,0.8c-0.2,0.3-0.4,0.7-0.4,1.2c0,0.5,0.1,1,0.4,1.3C91.4,103.2,91.7,103.3,92.2,103.3z"/>
		<path d="M104.7,95.1c-0.1,0-0.1-0.1-0.2-0.1c-0.1,0-0.1,0-0.2,0c-0.2,0-0.3,0.1-0.5,0.2c-0.2,0.1-0.3,0.3-0.5,0.6
			c-0.2,0.2-0.3,0.5-0.5,0.8c-0.2,0.4-0.3,0.9-0.4,1.4c-0.1,0.5-0.2,1-0.2,1.6v3.6l2.1,0.4v0.8H99v-0.8l1.5-0.4v-8L99,94.8V94h2.7
			l0.4,2.5h0.1c0.3-0.9,0.7-1.5,1.2-2c0.5-0.5,1-0.7,1.6-0.7c0.5,0,0.9,0.2,1.2,0.5c0.3,0.3,0.5,0.7,0.5,1.2c0,0.4-0.1,0.7-0.3,0.9
			c-0.2,0.2-0.5,0.3-0.8,0.3c-0.3,0-0.6-0.1-0.8-0.3c-0.2-0.2-0.3-0.5-0.3-0.8c0-0.1,0-0.1,0-0.2C104.6,95.3,104.7,95.2,104.7,95.1z
			"/>
		<path d="M116.4,99.2h-6.6c0,0.9,0.1,1.7,0.4,2.3c0.3,0.6,0.6,1,1.1,1.3s1,0.4,1.5,0.4c0.6,0,1.1-0.1,1.6-0.4
			c0.5-0.2,0.9-0.6,1.3-1l0.6,0.5c-0.4,0.6-1,1.1-1.6,1.6c-0.6,0.4-1.5,0.6-2.5,0.6c-0.9,0-1.6-0.2-2.3-0.6s-1.2-0.9-1.5-1.6
			c-0.2-0.4-0.3-0.8-0.4-1.3c-0.1-0.5-0.1-1-0.1-1.5c0-1.8,0.4-3.1,1.2-4.1c0.8-1,1.9-1.5,3.3-1.5c1.3,0,2.3,0.4,3,1.2
			c0.7,0.8,1.1,1.9,1.1,3.3c0,0.1,0,0.2,0,0.4C116.5,98.8,116.5,99,116.4,99.2z M112.3,94.8c-1.5,0-2.4,1.2-2.5,3.5h4.8v-0.6
			c0-0.9-0.2-1.6-0.6-2.1C113.6,95.1,113.1,94.8,112.3,94.8z"/>
		<path d="M123.7,95.1c-0.1,0-0.1-0.1-0.2-0.1c-0.1,0-0.1,0-0.2,0c-0.2,0-0.3,0.1-0.5,0.2c-0.2,0.1-0.3,0.3-0.5,0.6
			c-0.2,0.2-0.3,0.5-0.5,0.8c-0.2,0.4-0.3,0.9-0.4,1.4c-0.1,0.5-0.2,1-0.2,1.6v3.6l2.1,0.4v0.8H118v-0.8l1.5-0.4v-8l-1.5-0.4V94h2.7
			l0.4,2.5h0.1c0.3-0.9,0.7-1.5,1.2-2c0.5-0.5,1-0.7,1.6-0.7c0.5,0,0.9,0.2,1.2,0.5c0.3,0.3,0.5,0.7,0.5,1.2c0,0.4-0.1,0.7-0.3,0.9
			c-0.2,0.2-0.5,0.3-0.8,0.3c-0.3,0-0.6-0.1-0.8-0.3c-0.2-0.2-0.3-0.5-0.3-0.8c0-0.1,0-0.1,0-0.2C123.7,95.3,123.7,95.2,123.7,95.1z
			"/>
		<path d="M133,95.1l-1.5-0.4V94h3.3v9.1l1.5,0.4v0.8h-4.8v-0.8l1.5-0.4V95.1z M132.7,90.9c0-0.4,0.1-0.7,0.3-0.9
			c0.2-0.2,0.5-0.3,0.9-0.3c0.4,0,0.7,0.1,0.9,0.3c0.2,0.2,0.3,0.5,0.3,0.9c0,0.4-0.1,0.6-0.3,0.9c-0.2,0.2-0.5,0.3-0.9,0.3
			c-0.4,0-0.7-0.1-0.9-0.3S132.7,91.3,132.7,90.9z"/>
		<path d="M138.9,103.1v-8l-1.5-0.4V94h2.7l0.4,1.9h0.1c0.4-0.6,0.9-1.2,1.5-1.5c0.6-0.4,1.3-0.6,2.1-0.6c1.1,0,1.8,0.3,2.3,1
			c0.3,0.4,0.4,0.9,0.5,1.5c0.1,0.6,0.2,1.5,0.2,2.6v4.2l1.5,0.4v0.8h-4.6v-0.8l1.3-0.4v-4.2c0-0.8,0-1.4-0.1-1.8
			c0-0.4-0.1-0.7-0.2-0.9c-0.2-0.3-0.4-0.5-0.7-0.7c-0.3-0.2-0.6-0.2-1-0.2c-0.7,0-1.4,0.2-1.9,0.7c-0.5,0.5-0.8,1.2-0.9,2.2v5.1
			l1.3,0.4v0.8h-4.6v-0.8L138.9,103.1z"/>
		<path d="M154.9,99.2c0-0.8,0.1-1.6,0.3-2.4c0.2-0.7,0.5-1.4,1-1.8c0.4-0.4,0.8-0.7,1.3-0.9c0.5-0.2,1.1-0.3,1.7-0.3
			c0.6,0,1.1,0.1,1.5,0.3s0.9,0.6,1.2,1.2v-4.7l-1.5-0.4v-0.8h3.3v13.7l1.5,0.4v0.8l-2.9,0.2l-0.2-1.6c-0.4,0.6-0.8,1-1.3,1.2
			s-1,0.3-1.7,0.3c-0.6,0-1.2-0.1-1.7-0.3c-0.5-0.2-1-0.5-1.3-0.9c-0.4-0.5-0.7-1.1-1-1.8C155,100.8,154.9,100,154.9,99.2z
			 M162.1,99.2c0-0.8-0.1-1.4-0.2-2c-0.1-0.6-0.3-1-0.5-1.4c-0.2-0.3-0.4-0.6-0.7-0.8s-0.7-0.3-1.2-0.3c-0.4,0-0.8,0.1-1.1,0.2
			c-0.3,0.2-0.6,0.4-0.8,0.7c-0.2,0.3-0.4,0.8-0.5,1.4c-0.1,0.6-0.2,1.3-0.2,2c0,0.8,0.1,1.4,0.2,2c0.1,0.6,0.3,1,0.5,1.4
			c0.2,0.3,0.5,0.6,0.8,0.7c0.3,0.2,0.7,0.3,1.1,0.3c0.4,0,0.8-0.1,1.1-0.2c0.3-0.1,0.6-0.4,0.7-0.7c0.2-0.4,0.4-0.8,0.5-1.4
			C162,100.6,162.1,99.9,162.1,99.2z"/>
		<path d="M175.3,99.2h-6.6c0,0.9,0.1,1.7,0.4,2.3c0.3,0.6,0.6,1,1.1,1.3s1,0.4,1.5,0.4c0.6,0,1.1-0.1,1.6-0.4
			c0.5-0.2,0.9-0.6,1.3-1l0.6,0.5c-0.4,0.6-1,1.1-1.6,1.6c-0.6,0.4-1.5,0.6-2.5,0.6c-0.9,0-1.6-0.2-2.3-0.6s-1.2-0.9-1.5-1.6
			c-0.2-0.4-0.3-0.8-0.4-1.3c-0.1-0.5-0.1-1-0.1-1.5c0-1.8,0.4-3.1,1.2-4.1c0.8-1,1.9-1.5,3.3-1.5c1.3,0,2.3,0.4,3,1.2
			c0.7,0.8,1.1,1.9,1.1,3.3c0,0.1,0,0.2,0,0.4C175.3,98.8,175.3,99,175.3,99.2z M171.2,94.8c-1.5,0-2.4,1.2-2.5,3.5h4.8v-0.6
			c0-0.9-0.2-1.6-0.6-2.1C172.4,95.1,171.9,94.8,171.2,94.8z"/>
		<path d="M178.3,95.1l-1.5-0.4V94h3.3v9.1l1.5,0.4v0.8h-4.8v-0.8l1.5-0.4V95.1z M178,90.9c0-0.4,0.1-0.7,0.3-0.9
			c0.2-0.2,0.5-0.3,0.9-0.3c0.4,0,0.7,0.1,0.9,0.3c0.2,0.2,0.3,0.5,0.3,0.9c0,0.4-0.1,0.6-0.3,0.9c-0.2,0.2-0.5,0.3-0.9,0.3
			c-0.4,0-0.7-0.1-0.9-0.3S178,91.3,178,90.9z"/>
		<path d="M184.2,103.1v-8l-1.5-0.4V94h2.7l0.4,1.9h0.1c0.4-0.6,0.9-1.2,1.5-1.5c0.6-0.4,1.3-0.6,2.1-0.6c1.1,0,1.8,0.3,2.3,1
			c0.3,0.4,0.4,0.9,0.5,1.5c0.1,0.6,0.2,1.5,0.2,2.6v4.2l1.5,0.4v0.8h-4.6v-0.8l1.3-0.4v-4.2c0-0.8,0-1.4-0.1-1.8
			c0-0.4-0.1-0.7-0.2-0.9c-0.2-0.3-0.4-0.5-0.7-0.7c-0.3-0.2-0.6-0.2-1-0.2c-0.7,0-1.4,0.2-1.9,0.7c-0.5,0.5-0.8,1.2-0.9,2.2v5.1
			l1.3,0.4v0.8h-4.6v-0.8L184.2,103.1z"/>
		<path d="M204,99.2h-6.6c0,0.9,0.1,1.7,0.4,2.3c0.3,0.6,0.6,1,1.1,1.3s1,0.4,1.5,0.4c0.6,0,1.1-0.1,1.6-0.4c0.5-0.2,0.9-0.6,1.3-1
			l0.6,0.5c-0.4,0.6-1,1.1-1.6,1.6c-0.6,0.4-1.5,0.6-2.5,0.6c-0.9,0-1.6-0.2-2.3-0.6s-1.2-0.9-1.5-1.6c-0.2-0.4-0.3-0.8-0.4-1.3
			c-0.1-0.5-0.1-1-0.1-1.5c0-1.8,0.4-3.1,1.2-4.1c0.8-1,1.9-1.5,3.3-1.5c1.3,0,2.3,0.4,3,1.2c0.7,0.8,1.1,1.9,1.1,3.3
			c0,0.1,0,0.2,0,0.4C204,98.8,204,99,204,99.2z M199.9,94.8c-1.5,0-2.4,1.2-2.5,3.5h4.8v-0.6c0-0.9-0.2-1.6-0.6-2.1
			C201.2,95.1,200.6,94.8,199.9,94.8z"/>
		<path d="M207,103.1v-8l-1.5-0.4V94h2.7l0.4,1.9h0.1c0.4-0.6,0.9-1.2,1.5-1.5c0.6-0.4,1.3-0.6,2.1-0.6c1.1,0,1.8,0.3,2.3,1
			c0.3,0.4,0.4,0.9,0.5,1.5c0.1,0.6,0.2,1.5,0.2,2.6v4.2l1.5,0.4v0.8h-4.6v-0.8l1.3-0.4v-4.2c0-0.8,0-1.4-0.1-1.8
			c0-0.4-0.1-0.7-0.2-0.9c-0.2-0.3-0.4-0.5-0.7-0.7c-0.3-0.2-0.6-0.2-1-0.2c-0.7,0-1.4,0.2-1.9,0.7c-0.5,0.5-0.8,1.2-0.9,2.2v5.1
			l1.3,0.4v0.8h-4.6v-0.8L207,103.1z"/>
		<path d="M229.3,103.2c1.1,0,1.9-0.3,2.4-0.8c0.5-0.5,0.8-1.3,0.8-2.4v-1.3l-1.6-0.4v-0.9h5.1v0.9l-1.6,0.4v5.6h-1l-0.5-1.5
			c-0.5,0.6-1.1,1-1.7,1.3c-0.6,0.3-1.3,0.4-2.1,0.4c-1.7,0-3.1-0.5-4.2-1.6c-0.6-0.6-1-1.3-1.4-2.3c-0.3-0.9-0.5-1.9-0.5-3
			c0-1.1,0.2-2.2,0.5-3.1c0.3-1,0.8-1.8,1.4-2.4c0.5-0.5,1.1-1,1.8-1.2c0.7-0.3,1.5-0.4,2.3-0.4c0.8,0,1.4,0.1,2,0.4
			c0.5,0.2,1.1,0.6,1.5,1.1l0.4-1.3h1v4.2H233c-0.2-1.1-0.6-2-1.2-2.5c-0.7-0.6-1.5-0.8-2.6-0.8c-0.6,0-1.2,0.1-1.6,0.3
			s-0.8,0.5-1.1,1c-0.4,0.5-0.6,1.2-0.8,2c-0.2,0.8-0.3,1.7-0.3,2.6c0,0.9,0.1,1.8,0.3,2.6c0.2,0.8,0.5,1.5,0.9,2
			c0.3,0.4,0.7,0.8,1.1,1C228.1,103.1,228.6,103.2,229.3,103.2z"/>
		<path d="M245.9,99.2h-6.6c0,0.9,0.1,1.7,0.4,2.3c0.3,0.6,0.6,1,1.1,1.3s1,0.4,1.5,0.4c0.6,0,1.1-0.1,1.6-0.4
			c0.5-0.2,0.9-0.6,1.3-1l0.6,0.5c-0.4,0.6-1,1.1-1.6,1.6c-0.6,0.4-1.5,0.6-2.5,0.6c-0.9,0-1.6-0.2-2.3-0.6s-1.2-0.9-1.5-1.6
			c-0.2-0.4-0.3-0.8-0.4-1.3c-0.1-0.5-0.1-1-0.1-1.5c0-1.8,0.4-3.1,1.2-4.1c0.8-1,1.9-1.5,3.3-1.5c1.3,0,2.3,0.4,3,1.2
			c0.7,0.8,1.1,1.9,1.1,3.3c0,0.1,0,0.2,0,0.4C245.9,98.8,245.9,99,245.9,99.2z M241.8,94.8c-1.5,0-2.4,1.2-2.5,3.5h4.8v-0.6
			c0-0.9-0.2-1.6-0.6-2.1C243.1,95.1,242.5,94.8,241.8,94.8z"/>
		<path d="M247.7,99.2c0-0.8,0.1-1.6,0.3-2.4c0.2-0.7,0.5-1.4,1-1.8c0.4-0.4,0.8-0.7,1.3-0.9c0.5-0.2,1.1-0.3,1.7-0.3
			c0.6,0,1.1,0.1,1.5,0.3s0.9,0.6,1.2,1.2v-4.7l-1.5-0.4v-0.8h3.3v13.7l1.5,0.4v0.8l-2.9,0.2l-0.2-1.6c-0.4,0.6-0.8,1-1.3,1.2
			s-1,0.3-1.7,0.3c-0.6,0-1.2-0.1-1.7-0.3c-0.5-0.2-1-0.5-1.3-0.9c-0.4-0.5-0.7-1.1-1-1.8C247.8,100.8,247.7,100,247.7,99.2z
			 M254.8,99.2c0-0.8-0.1-1.4-0.2-2c-0.1-0.6-0.3-1-0.5-1.4c-0.2-0.3-0.4-0.6-0.7-0.8s-0.7-0.3-1.2-0.3c-0.4,0-0.8,0.1-1.1,0.2
			c-0.3,0.2-0.6,0.4-0.8,0.7c-0.2,0.3-0.4,0.8-0.5,1.4c-0.1,0.6-0.2,1.3-0.2,2c0,0.8,0.1,1.4,0.2,2c0.1,0.6,0.3,1,0.5,1.4
			c0.2,0.3,0.5,0.6,0.8,0.7c0.3,0.2,0.7,0.3,1.1,0.3c0.4,0,0.8-0.1,1.1-0.2c0.3-0.1,0.6-0.4,0.7-0.7c0.2-0.4,0.4-0.8,0.5-1.4
			C254.7,100.6,254.8,99.9,254.8,99.2z"/>
		<path d="M259.3,102c0-1,0.5-1.8,1.4-2.3s2.5-1,4.6-1.3c-0.1-0.7-0.1-1.3-0.2-1.7c-0.1-0.4-0.2-0.8-0.3-1c-0.2-0.3-0.4-0.6-0.7-0.7
			c-0.3-0.2-0.7-0.2-1-0.2c-0.4,0-0.7,0.1-1,0.2c-0.3,0.1-0.5,0.3-0.6,0.5c0.2,0.1,0.3,0.3,0.4,0.5s0.1,0.4,0.1,0.6
			c0,0.3-0.1,0.6-0.3,0.8c-0.2,0.2-0.5,0.3-0.8,0.3c-0.3,0-0.6-0.1-0.8-0.3s-0.3-0.5-0.3-0.9c0-0.5,0.2-1,0.6-1.3
			c0.4-0.4,0.8-0.6,1.4-0.8c0.6-0.2,1.1-0.3,1.7-0.3c0.5,0,1,0.1,1.4,0.2s0.8,0.4,1.1,0.7c0.8,0.8,1.2,2.2,1.2,4.2v2.8
			c0,0.6,0,1.1,0.1,1.3c0.1,0.2,0.3,0.4,0.5,0.4h0.9v0.6c-0.9,0.4-1.6,0.6-2.1,0.6c-0.4,0-0.7-0.1-0.8-0.4c-0.1-0.3-0.2-0.8-0.2-1.6
			h-0.1c-0.4,0.6-0.9,1.2-1.6,1.5s-1.3,0.6-2.1,0.6c-0.8,0-1.4-0.2-1.9-0.6C259.5,103.3,259.3,102.8,259.3,102z M262.7,103.3
			c0.4,0,0.7-0.1,1.1-0.3s0.7-0.4,1-0.8c0.2-0.3,0.4-0.6,0.4-0.9c0.1-0.3,0.1-0.8,0.1-1.2c0-0.2,0-0.4,0-0.6c0-0.2,0-0.4-0.1-0.6
			c-1,0.2-1.8,0.4-2.4,0.7s-1,0.5-1.2,0.8c-0.2,0.3-0.4,0.7-0.4,1.2c0,0.5,0.1,1,0.4,1.3C261.9,103.2,262.2,103.3,262.7,103.3z"/>
		<path d="M270.9,103.1v-8l-1.5-0.4V94h2.7l0.4,1.9h0.1c0.4-0.6,0.9-1.2,1.5-1.5c0.6-0.4,1.3-0.6,2.1-0.6c1.1,0,1.8,0.3,2.3,1
			c0.3,0.4,0.4,0.9,0.5,1.5c0.1,0.6,0.2,1.5,0.2,2.6v4.2l1.5,0.4v0.8h-4.6v-0.8l1.3-0.4v-4.2c0-0.8,0-1.4-0.1-1.8
			c0-0.4-0.1-0.7-0.2-0.9c-0.2-0.3-0.4-0.5-0.7-0.7c-0.3-0.2-0.6-0.2-1-0.2c-0.7,0-1.4,0.2-1.9,0.7c-0.5,0.5-0.8,1.2-0.9,2.2v5.1
			l1.3,0.4v0.8h-4.6v-0.8L270.9,103.1z"/>
		<path d="M288.2,103.5l1.1-0.4l-2.9-4l-1.4,1.2v2.7l1.5,0.4v0.8h-4.8v-0.8l1.5-0.4V90.6l-1.5-0.4v-0.8h3.3v10.1l4-4.4l-1.3-0.4V94
			h4.1v0.8l-1.4,0.4l-2.9,2.9l3.8,5.1l1,0.3v0.8h-4.2V103.5z"/>
		<path d="M302,99.2h-6.6c0,0.9,0.1,1.7,0.4,2.3c0.3,0.6,0.6,1,1.1,1.3s1,0.4,1.5,0.4c0.6,0,1.1-0.1,1.6-0.4c0.5-0.2,0.9-0.6,1.3-1
			l0.6,0.5c-0.4,0.6-1,1.1-1.6,1.6c-0.6,0.4-1.5,0.6-2.5,0.6c-0.9,0-1.6-0.2-2.3-0.6s-1.2-0.9-1.5-1.6c-0.2-0.4-0.3-0.8-0.4-1.3
			c-0.1-0.5-0.1-1-0.1-1.5c0-1.8,0.4-3.1,1.2-4.1c0.8-1,1.9-1.5,3.3-1.5c1.3,0,2.3,0.4,3,1.2c0.7,0.8,1.1,1.9,1.1,3.3
			c0,0.1,0,0.2,0,0.4C302,98.8,302,99,302,99.2z M297.9,94.8c-1.5,0-2.4,1.2-2.5,3.5h4.8v-0.6c0-0.9-0.2-1.6-0.6-2.1
			C299.2,95.1,298.6,94.8,297.9,94.8z"/>
		<path d="M305,103.1v-8l-1.5-0.4V94h2.7l0.4,1.9h0.1c0.4-0.6,0.9-1.2,1.5-1.5c0.6-0.4,1.3-0.6,2.1-0.6c1.1,0,1.8,0.3,2.3,1
			c0.3,0.4,0.4,0.9,0.5,1.5c0.1,0.6,0.2,1.5,0.2,2.6v4.2l1.5,0.4v0.8h-4.6v-0.8l1.3-0.4v-4.2c0-0.8,0-1.4-0.1-1.8
			c0-0.4-0.1-0.7-0.2-0.9c-0.2-0.3-0.4-0.5-0.7-0.7c-0.3-0.2-0.6-0.2-1-0.2c-0.7,0-1.4,0.2-1.9,0.7c-0.5,0.5-0.8,1.2-0.9,2.2v5.1
			l1.3,0.4v0.8h-4.6v-0.8L305,103.1z"/>
		<path d="M323.8,94v5.4c0,0.8,0,1.4,0.1,1.8s0.1,0.7,0.2,1c0.1,0.3,0.3,0.5,0.6,0.7c0.3,0.2,0.6,0.2,1,0.2c0.3,0,0.7-0.1,1-0.2
			c0.3-0.1,0.6-0.3,0.8-0.5c0.5-0.5,0.8-1.2,0.9-2.2v-5.1l-1.7-0.4V94h3.5v9.1l1.5,0.4v0.8l-2.9,0.2l-0.2-2.1h-0.1
			c-0.4,0.6-0.9,1.2-1.5,1.5s-1.3,0.6-2,0.6c-0.5,0-0.9-0.1-1.3-0.3c-0.4-0.2-0.7-0.4-0.9-0.8c-0.2-0.4-0.4-0.9-0.5-1.5
			c-0.1-0.6-0.2-1.5-0.2-2.6v-4.2l-1.3-0.4V94H323.8z"/>
		<path d="M334.3,103.1v-8l-1.5-0.4V94h2.7l0.4,1.9h0.1c0.4-0.6,0.9-1.2,1.5-1.5c0.6-0.4,1.3-0.6,2.1-0.6c1.1,0,1.8,0.3,2.3,1
			c0.3,0.4,0.4,0.9,0.5,1.5c0.1,0.6,0.2,1.5,0.2,2.6v4.2l1.5,0.4v0.8h-4.6v-0.8l1.3-0.4v-4.2c0-0.8,0-1.4-0.1-1.8
			c0-0.4-0.1-0.7-0.2-0.9c-0.2-0.3-0.4-0.5-0.7-0.7c-0.3-0.2-0.6-0.2-1-0.2c-0.7,0-1.4,0.2-1.9,0.7c-0.5,0.5-0.8,1.2-0.9,2.2v5.1
			l1.3,0.4v0.8h-4.6v-0.8L334.3,103.1z"/>
		<path d="M345.5,99.2c0-0.8,0.1-1.6,0.3-2.4c0.2-0.7,0.5-1.4,1-1.8c0.4-0.4,0.8-0.7,1.3-0.9c0.5-0.2,1.1-0.3,1.7-0.3
			c0.6,0,1.1,0.1,1.5,0.3s0.9,0.6,1.2,1.2v-4.7l-1.5-0.4v-0.8h3.3v13.7l1.5,0.4v0.8l-2.9,0.2l-0.2-1.6c-0.4,0.6-0.8,1-1.3,1.2
			s-1,0.3-1.7,0.3c-0.6,0-1.2-0.1-1.7-0.3c-0.5-0.2-1-0.5-1.3-0.9c-0.4-0.5-0.7-1.1-1-1.8C345.6,100.8,345.5,100,345.5,99.2z
			 M352.6,99.2c0-0.8-0.1-1.4-0.2-2c-0.1-0.6-0.3-1-0.5-1.4c-0.2-0.3-0.4-0.6-0.7-0.8s-0.7-0.3-1.2-0.3c-0.4,0-0.8,0.1-1.1,0.2
			c-0.3,0.2-0.6,0.4-0.8,0.7c-0.2,0.3-0.4,0.8-0.5,1.4c-0.1,0.6-0.2,1.3-0.2,2c0,0.8,0.1,1.4,0.2,2c0.1,0.6,0.3,1,0.5,1.4
			c0.2,0.3,0.5,0.6,0.8,0.7c0.3,0.2,0.7,0.3,1.1,0.3c0.4,0,0.8-0.1,1.1-0.2c0.3-0.1,0.6-0.4,0.7-0.7c0.2-0.4,0.4-0.8,0.5-1.4
			C352.6,100.6,352.6,99.9,352.6,99.2z"/>
		<path d="M368.4,103.2c1.1,0,1.9-0.3,2.4-0.8c0.5-0.5,0.8-1.3,0.8-2.4v-1.3l-1.6-0.4v-0.9h5.1v0.9l-1.6,0.4v5.6h-1l-0.5-1.5
			c-0.5,0.6-1.1,1-1.7,1.3c-0.6,0.3-1.3,0.4-2.1,0.4c-1.7,0-3.1-0.5-4.2-1.6c-0.6-0.6-1-1.3-1.4-2.3c-0.3-0.9-0.5-1.9-0.5-3
			c0-1.1,0.2-2.2,0.5-3.1c0.3-1,0.8-1.8,1.4-2.4c0.5-0.5,1.1-1,1.8-1.2c0.7-0.3,1.5-0.4,2.3-0.4c0.8,0,1.4,0.1,2,0.4
			c0.5,0.2,1.1,0.6,1.5,1.1l0.4-1.3h1v4.2h-1.2c-0.2-1.1-0.6-2-1.2-2.5c-0.7-0.6-1.5-0.8-2.6-0.8c-0.6,0-1.2,0.1-1.6,0.3
			s-0.8,0.5-1.1,1c-0.4,0.5-0.6,1.2-0.8,2c-0.2,0.8-0.3,1.7-0.3,2.6c0,0.9,0.1,1.8,0.3,2.6c0.2,0.8,0.5,1.5,0.9,2
			c0.3,0.4,0.7,0.8,1.1,1C367.2,103.1,367.7,103.2,368.4,103.2z"/>
		<path d="M385,99.2h-6.6c0,0.9,0.1,1.7,0.4,2.3c0.3,0.6,0.6,1,1.1,1.3s1,0.4,1.5,0.4c0.6,0,1.1-0.1,1.6-0.4c0.5-0.2,0.9-0.6,1.3-1
			l0.6,0.5c-0.4,0.6-1,1.1-1.6,1.6c-0.6,0.4-1.5,0.6-2.5,0.6c-0.9,0-1.6-0.2-2.3-0.6s-1.2-0.9-1.5-1.6c-0.2-0.4-0.3-0.8-0.4-1.3
			c-0.1-0.5-0.1-1-0.1-1.5c0-1.8,0.4-3.1,1.2-4.1c0.8-1,1.9-1.5,3.3-1.5c1.3,0,2.3,0.4,3,1.2c0.7,0.8,1.1,1.9,1.1,3.3
			c0,0.1,0,0.2,0,0.4C385,98.8,385,99,385,99.2z M380.9,94.8c-1.5,0-2.4,1.2-2.5,3.5h4.8v-0.6c0-0.9-0.2-1.6-0.6-2.1
			C382.1,95.1,381.6,94.8,380.9,94.8z"/>
		<path d="M386.2,94.9v-0.7l1.8-0.3v-0.2c0-1.5,0.3-2.6,0.9-3.4s1.5-1.2,2.6-1.2c0.7,0,1.3,0.2,1.8,0.5c0.4,0.4,0.7,0.8,0.7,1.4
			c0,0.4-0.1,0.6-0.3,0.8c-0.2,0.2-0.4,0.3-0.7,0.3c-0.3,0-0.5-0.1-0.7-0.2c-0.2-0.2-0.3-0.4-0.3-0.7c0-0.3,0.1-0.7,0.3-1
			c-0.2-0.2-0.5-0.3-0.9-0.3c-0.3,0-0.5,0.1-0.8,0.2c-0.3,0.2-0.5,0.4-0.6,0.7c-0.1,0.3-0.2,0.6-0.2,1s0,0.8,0,1.2v1h2.4v0.9h-2.4
			v8.2l2.1,0.4v0.8h-5.4v-0.8l1.5-0.4v-8.2H386.2z"/>
		<path d="M396.4,94v5.4c0,0.8,0,1.4,0.1,1.8s0.1,0.7,0.2,1c0.1,0.3,0.3,0.5,0.6,0.7c0.3,0.2,0.6,0.2,1,0.2c0.3,0,0.7-0.1,1-0.2
			c0.3-0.1,0.6-0.3,0.8-0.5c0.5-0.5,0.8-1.2,0.9-2.2v-5.1l-1.7-0.4V94h3.5v9.1l1.5,0.4v0.8l-2.9,0.2l-0.2-2.1h-0.1
			c-0.4,0.6-0.9,1.2-1.5,1.5s-1.3,0.6-2,0.6c-0.5,0-0.9-0.1-1.3-0.3c-0.4-0.2-0.7-0.4-0.9-0.8c-0.2-0.4-0.4-0.9-0.5-1.5
			c-0.1-0.6-0.2-1.5-0.2-2.6v-4.2l-1.3-0.4V94H396.4z M395.4,90.8c0-0.4,0.1-0.6,0.3-0.8c0.2-0.2,0.5-0.3,0.8-0.3
			c0.3,0,0.6,0.1,0.8,0.3s0.3,0.5,0.3,0.8s-0.1,0.6-0.3,0.8s-0.5,0.3-0.8,0.3c-0.3,0-0.6-0.1-0.8-0.3
			C395.5,91.4,395.4,91.2,395.4,90.8z M399.8,90.8c0-0.4,0.1-0.6,0.3-0.8c0.2-0.2,0.5-0.3,0.8-0.3c0.3,0,0.6,0.1,0.8,0.3
			c0.2,0.2,0.3,0.5,0.3,0.8s-0.1,0.6-0.3,0.8s-0.5,0.3-0.8,0.3c-0.3,0-0.6-0.1-0.8-0.3C399.9,91.4,399.8,91.2,399.8,90.8z"/>
		<path d="M413.3,103.1v-4.2c0-0.8,0-1.4-0.1-1.8c0-0.4-0.1-0.7-0.2-0.9c-0.3-0.6-0.9-0.9-1.7-0.9c-0.4,0-0.7,0.1-1,0.2
			c-0.3,0.1-0.6,0.3-0.9,0.5c-0.3,0.2-0.5,0.5-0.6,0.9c-0.1,0.3-0.2,0.8-0.2,1.2v5.1l1.3,0.4v0.8h-4.6v-0.8l1.5-0.4V90.6l-1.5-0.4
			v-0.8h3.3v6.3c0.4-0.6,0.9-1.1,1.5-1.4s1.3-0.5,2-0.5c0.5,0,1,0.1,1.4,0.3c0.4,0.2,0.7,0.4,1,0.8c0.3,0.4,0.4,0.9,0.5,1.5
			c0.1,0.6,0.2,1.5,0.2,2.6v4.2l1.5,0.4v0.8H412v-0.8L413.3,103.1z"/>
		<path d="M419,103.1V90.6l-1.5-0.4v-0.8h3.3v13.7l1.5,0.4v0.8h-4.8v-0.8L419,103.1z"/>
		<path d="M432.3,99.2h-6.6c0,0.9,0.1,1.7,0.4,2.3c0.3,0.6,0.6,1,1.1,1.3s1,0.4,1.5,0.4c0.6,0,1.1-0.1,1.6-0.4
			c0.5-0.2,0.9-0.6,1.3-1l0.6,0.5c-0.4,0.6-1,1.1-1.6,1.6c-0.6,0.4-1.5,0.6-2.5,0.6c-0.9,0-1.6-0.2-2.3-0.6s-1.2-0.9-1.5-1.6
			c-0.2-0.4-0.3-0.8-0.4-1.3c-0.1-0.5-0.1-1-0.1-1.5c0-1.8,0.4-3.1,1.2-4.1c0.8-1,1.9-1.5,3.3-1.5c1.3,0,2.3,0.4,3,1.2
			c0.7,0.8,1.1,1.9,1.1,3.3c0,0.1,0,0.2,0,0.4C432.4,98.8,432.3,99,432.3,99.2z M428.2,94.8c-1.5,0-2.4,1.2-2.5,3.5h4.8v-0.6
			c0-0.9-0.2-1.6-0.6-2.1C429.5,95.1,428.9,94.8,428.2,94.8z"/>
		<path d="M435.4,103.1v-8l-1.5-0.4V94h2.7l0.4,1.9h0.1c0.4-0.6,0.9-1.2,1.5-1.5c0.6-0.4,1.3-0.6,2.1-0.6c1.1,0,1.8,0.3,2.3,1
			c0.3,0.4,0.4,0.9,0.5,1.5c0.1,0.6,0.2,1.5,0.2,2.6v4.2l1.5,0.4v0.8h-4.6v-0.8l1.3-0.4v-4.2c0-0.8,0-1.4-0.1-1.8
			c0-0.4-0.1-0.7-0.2-0.9c-0.2-0.3-0.4-0.5-0.7-0.7c-0.3-0.2-0.6-0.2-1-0.2c-0.7,0-1.4,0.2-1.9,0.7c-0.5,0.5-0.8,1.2-0.9,2.2v5.1
			l1.3,0.4v0.8h-4.6v-0.8L435.4,103.1z"/>
		<path d="M450.2,100.3h-1.1c0-0.5,0.1-1,0.2-1.4c0.1-0.4,0.3-0.8,0.6-1.2c0.3-0.4,0.7-0.9,1.2-1.4c0.4-0.4,0.8-0.9,1-1.3
			c0.2-0.4,0.3-0.9,0.3-1.4c0-0.8-0.2-1.3-0.6-1.8s-0.9-0.6-1.6-0.6c-0.5,0-1,0.1-1.4,0.3s-0.6,0.4-0.6,0.7c0.3,0.1,0.5,0.3,0.6,0.6
			s0.2,0.5,0.2,0.8c0,0.4-0.1,0.6-0.4,0.9s-0.5,0.3-0.9,0.3c-0.4,0-0.7-0.2-1-0.5c-0.3-0.3-0.4-0.7-0.4-1.2c0-0.5,0.2-1,0.5-1.5
			c0.3-0.4,0.8-0.8,1.4-1c0.6-0.3,1.3-0.4,2-0.4c0.8,0,1.5,0.1,2.1,0.4c0.6,0.3,1.1,0.7,1.4,1.2c0.3,0.5,0.5,1.1,0.5,1.7
			c0,0.6-0.1,1.1-0.4,1.6c-0.3,0.5-0.7,1-1.4,1.6c-0.6,0.5-1.1,1-1.4,1.4c-0.3,0.4-0.5,0.7-0.7,1C450.2,99.6,450.2,100,450.2,100.3z
			 M448.5,103.2c0-0.4,0.1-0.7,0.3-0.9s0.5-0.3,0.9-0.3c0.4,0,0.7,0.1,0.9,0.3s0.3,0.5,0.3,0.9c0,0.4-0.1,0.7-0.3,0.9
			s-0.5,0.3-0.9,0.3c-0.4,0-0.7-0.1-0.9-0.3S448.5,103.6,448.5,103.2z"/>
	</g>
</g>
<g>
	<g>
		<path d="M579.9,250.9c1.1,0,1.9-0.3,2.4-0.8s0.8-1.3,0.8-2.4v-1.3l-1.6-0.4v-0.9h5.1v0.9l-1.6,0.4v5.6h-1l-0.5-1.5
			c-0.5,0.6-1.1,1-1.7,1.3c-0.6,0.3-1.3,0.4-2.1,0.4c-1.7,0-3.1-0.5-4.2-1.6c-0.6-0.6-1-1.3-1.4-2.3c-0.3-0.9-0.5-1.9-0.5-3
			c0-1.1,0.2-2.2,0.5-3.1c0.3-1,0.8-1.8,1.4-2.4c0.5-0.5,1.1-1,1.8-1.2c0.7-0.3,1.5-0.4,2.3-0.4c0.8,0,1.4,0.1,2,0.4
			c0.5,0.2,1.1,0.6,1.5,1.1l0.4-1.3h1v4.2h-1.2c-0.2-1.1-0.6-2-1.2-2.5s-1.5-0.8-2.6-0.8c-0.6,0-1.2,0.1-1.6,0.3s-0.8,0.5-1.1,1
			c-0.4,0.5-0.6,1.2-0.8,2s-0.3,1.7-0.3,2.6c0,0.9,0.1,1.8,0.3,2.6c0.2,0.8,0.5,1.5,0.9,2c0.3,0.4,0.7,0.8,1.1,1
			C578.7,250.8,579.3,250.9,579.9,250.9z"/>
		<path d="M596.5,246.9h-6.6c0,0.9,0.1,1.7,0.4,2.3c0.3,0.6,0.6,1,1.1,1.3c0.5,0.3,1,0.4,1.5,0.4c0.6,0,1.1-0.1,1.6-0.4
			c0.5-0.2,0.9-0.6,1.3-1l0.6,0.5c-0.4,0.6-1,1.1-1.6,1.6s-1.5,0.6-2.5,0.6c-0.9,0-1.6-0.2-2.3-0.6c-0.7-0.4-1.2-0.9-1.5-1.6
			c-0.2-0.4-0.3-0.8-0.4-1.3c-0.1-0.5-0.1-1-0.1-1.5c0-1.8,0.4-3.1,1.2-4.1c0.8-1,1.9-1.5,3.3-1.5c1.3,0,2.3,0.4,3,1.2
			c0.7,0.8,1.1,1.9,1.1,3.3c0,0.1,0,0.2,0,0.4C596.6,246.5,596.5,246.7,596.5,246.9z M592.4,242.5c-1.5,0-2.4,1.2-2.5,3.5h4.8v-0.6
			c0-0.9-0.2-1.6-0.6-2.1C593.7,242.7,593.1,242.5,592.4,242.5z"/>
		<path d="M599.4,250.8v-12.5l-1.5-0.4v-0.8h3.3v13.7l1.5,0.4v0.8h-4.8v-0.8L599.4,250.8z"/>
		<path d="M604,249.7c0-1,0.5-1.8,1.4-2.3c0.9-0.6,2.5-1,4.6-1.3c-0.1-0.7-0.1-1.3-0.2-1.7c-0.1-0.4-0.2-0.8-0.3-1
			c-0.2-0.3-0.4-0.6-0.7-0.7c-0.3-0.2-0.7-0.2-1-0.2c-0.4,0-0.7,0.1-1,0.2c-0.3,0.1-0.5,0.3-0.6,0.5c0.2,0.1,0.3,0.3,0.4,0.5
			c0.1,0.2,0.1,0.4,0.1,0.6c0,0.3-0.1,0.6-0.3,0.8s-0.5,0.3-0.8,0.3c-0.3,0-0.6-0.1-0.8-0.3c-0.2-0.2-0.3-0.5-0.3-0.9
			c0-0.5,0.2-1,0.6-1.3c0.4-0.4,0.8-0.6,1.4-0.8c0.6-0.2,1.1-0.3,1.7-0.3c0.5,0,1,0.1,1.4,0.2c0.4,0.2,0.8,0.4,1.1,0.7
			c0.8,0.8,1.2,2.2,1.2,4.2v2.8c0,0.6,0,1.1,0.1,1.3c0.1,0.2,0.3,0.4,0.5,0.4h0.9v0.6c-0.9,0.4-1.6,0.6-2.1,0.6
			c-0.4,0-0.7-0.1-0.8-0.4s-0.2-0.8-0.2-1.6h-0.1c-0.4,0.6-0.9,1.2-1.6,1.5s-1.3,0.6-2.1,0.6c-0.8,0-1.4-0.2-1.9-0.6
			C604.2,251,604,250.4,604,249.7z M607.3,251c0.4,0,0.7-0.1,1.1-0.3s0.7-0.4,1-0.8c0.2-0.3,0.4-0.6,0.4-0.9
			c0.1-0.3,0.1-0.8,0.1-1.2c0-0.2,0-0.4,0-0.6c0-0.2,0-0.4-0.1-0.6c-1,0.2-1.8,0.4-2.4,0.7s-1,0.5-1.2,0.8c-0.2,0.3-0.4,0.7-0.4,1.2
			c0,0.5,0.1,1,0.4,1.3C606.6,250.9,606.9,251,607.3,251z"/>
		<path d="M618.1,251.2c0.7,0,1.3-0.1,1.7-0.4c0.4-0.3,0.7-0.7,0.7-1.2c0-0.4-0.1-0.8-0.4-1c-0.3-0.3-0.6-0.5-1-0.6
			c-0.4-0.2-0.8-0.3-1.2-0.4c-0.5-0.2-1-0.4-1.5-0.6c-0.5-0.2-0.9-0.5-1.2-0.9c-0.3-0.4-0.5-0.9-0.5-1.6c0-0.9,0.3-1.6,1-2.2
			c0.7-0.6,1.6-0.8,2.8-0.8c1,0,1.8,0.2,2.4,0.6c0.6,0.4,0.9,1,0.9,1.7c0,0.4-0.1,0.7-0.3,0.9c-0.2,0.2-0.4,0.4-0.8,0.4
			c-0.3,0-0.5-0.1-0.7-0.3s-0.3-0.4-0.3-0.7c0-0.2,0.1-0.5,0.2-0.7s0.3-0.3,0.5-0.4c-0.2-0.3-0.4-0.5-0.7-0.6
			c-0.3-0.1-0.7-0.2-1.1-0.2c-0.8,0-1.3,0.1-1.7,0.4c-0.4,0.3-0.6,0.7-0.6,1.2c0,0.4,0.1,0.7,0.3,0.9s0.5,0.4,0.8,0.6
			s0.8,0.3,1.3,0.5c0.4,0.1,0.9,0.3,1.3,0.4c0.4,0.2,0.8,0.4,1.1,0.6c0.3,0.2,0.6,0.5,0.8,0.9s0.3,0.8,0.3,1.3
			c0,0.6-0.2,1.2-0.5,1.7c-0.4,0.5-0.8,0.8-1.5,1.1s-1.3,0.4-2.1,0.4c-1.1,0-2-0.2-2.7-0.7c-0.7-0.5-1-1.1-1-1.8
			c0-0.4,0.1-0.7,0.3-1c0.2-0.2,0.4-0.4,0.8-0.4c0.3,0,0.6,0.1,0.8,0.3s0.3,0.4,0.3,0.7c0,0.2-0.1,0.5-0.2,0.7
			c-0.1,0.2-0.3,0.4-0.5,0.5c0.2,0.2,0.5,0.4,0.9,0.6C617.1,251.2,617.6,251.2,618.1,251.2z"/>
		<path d="M627.7,251.2c0.7,0,1.3-0.1,1.7-0.4c0.4-0.3,0.7-0.7,0.7-1.2c0-0.4-0.1-0.8-0.4-1c-0.3-0.3-0.6-0.5-1-0.6
			c-0.4-0.2-0.8-0.3-1.2-0.4c-0.5-0.2-1-0.4-1.5-0.6c-0.5-0.2-0.9-0.5-1.2-0.9c-0.3-0.4-0.5-0.9-0.5-1.6c0-0.9,0.3-1.6,1-2.2
			c0.7-0.6,1.6-0.8,2.8-0.8c1,0,1.8,0.2,2.4,0.6c0.6,0.4,0.9,1,0.9,1.7c0,0.4-0.1,0.7-0.3,0.9c-0.2,0.2-0.4,0.4-0.8,0.4
			c-0.3,0-0.5-0.1-0.7-0.3s-0.3-0.4-0.3-0.7c0-0.2,0.1-0.5,0.2-0.7s0.3-0.3,0.5-0.4c-0.2-0.3-0.4-0.5-0.7-0.6
			c-0.3-0.1-0.7-0.2-1.1-0.2c-0.8,0-1.3,0.1-1.7,0.4c-0.4,0.3-0.6,0.7-0.6,1.2c0,0.4,0.1,0.7,0.3,0.9s0.5,0.4,0.8,0.6
			s0.8,0.3,1.3,0.5c0.4,0.1,0.9,0.3,1.3,0.4c0.4,0.2,0.8,0.4,1.1,0.6c0.3,0.2,0.6,0.5,0.8,0.9s0.3,0.8,0.3,1.3
			c0,0.6-0.2,1.2-0.5,1.7c-0.4,0.5-0.8,0.8-1.5,1.1s-1.3,0.4-2.1,0.4c-1.1,0-2-0.2-2.7-0.7c-0.7-0.5-1-1.1-1-1.8
			c0-0.4,0.1-0.7,0.3-1c0.2-0.2,0.4-0.4,0.8-0.4c0.3,0,0.6,0.1,0.8,0.3s0.3,0.4,0.3,0.7c0,0.2-0.1,0.5-0.2,0.7
			c-0.1,0.2-0.3,0.4-0.5,0.5c0.2,0.2,0.5,0.4,0.9,0.6C626.6,251.2,627.1,251.2,627.7,251.2z"/>
		<path d="M642,246.9h-6.6c0,0.9,0.1,1.7,0.4,2.3c0.3,0.6,0.6,1,1.1,1.3c0.5,0.3,1,0.4,1.5,0.4c0.6,0,1.1-0.1,1.6-0.4
			c0.5-0.2,0.9-0.6,1.3-1l0.6,0.5c-0.4,0.6-1,1.1-1.6,1.6s-1.5,0.6-2.5,0.6c-0.9,0-1.6-0.2-2.3-0.6c-0.7-0.4-1.2-0.9-1.5-1.6
			c-0.2-0.4-0.3-0.8-0.4-1.3c-0.1-0.5-0.1-1-0.1-1.5c0-1.8,0.4-3.1,1.2-4.1c0.8-1,1.9-1.5,3.3-1.5c1.3,0,2.3,0.4,3,1.2
			c0.7,0.8,1.1,1.9,1.1,3.3c0,0.1,0,0.2,0,0.4C642.1,246.5,642,246.7,642,246.9z M637.9,242.5c-1.5,0-2.4,1.2-2.5,3.5h4.8v-0.6
			c0-0.9-0.2-1.6-0.6-2.1C639.2,242.7,638.6,242.5,637.9,242.5z"/>
		<path d="M645.1,250.8v-8l-1.5-0.4v-0.8h2.7l0.4,1.9h0.1c0.4-0.6,0.9-1.2,1.5-1.5c0.6-0.4,1.3-0.6,2.1-0.6c1.1,0,1.8,0.3,2.3,1
			c0.3,0.4,0.4,0.9,0.5,1.5s0.2,1.5,0.2,2.6v4.2l1.5,0.4v0.8h-4.6v-0.8l1.3-0.4v-4.2c0-0.8,0-1.4-0.1-1.8c0-0.4-0.1-0.7-0.2-1
			c-0.2-0.3-0.4-0.5-0.7-0.7s-0.6-0.2-1-0.2c-0.7,0-1.4,0.2-1.9,0.7c-0.5,0.5-0.8,1.2-0.9,2.2v5.1l1.3,0.4v0.8h-4.6v-0.8
			L645.1,250.8z"/>
		<path d="M664.8,246.9h-6.6c0,0.9,0.1,1.7,0.4,2.3c0.3,0.6,0.6,1,1.1,1.3c0.5,0.3,1,0.4,1.5,0.4c0.6,0,1.1-0.1,1.6-0.4
			s0.9-0.6,1.3-1l0.6,0.5c-0.4,0.6-1,1.1-1.6,1.6c-0.6,0.4-1.5,0.6-2.5,0.6c-0.9,0-1.6-0.2-2.3-0.6c-0.7-0.4-1.2-0.9-1.5-1.6
			c-0.2-0.4-0.3-0.8-0.4-1.3c-0.1-0.5-0.1-1-0.1-1.5c0-1.8,0.4-3.1,1.2-4.1c0.8-1,1.9-1.5,3.3-1.5c1.3,0,2.3,0.4,3,1.2
			c0.7,0.8,1.1,1.9,1.1,3.3c0,0.1,0,0.2,0,0.4C664.8,246.5,664.8,246.7,664.8,246.9z M660.7,242.5c-1.5,0-2.4,1.2-2.5,3.5h4.8v-0.6
			c0-0.9-0.2-1.6-0.6-2.1C662,242.7,661.4,242.5,660.7,242.5z"/>
		<path d="M672.1,242.8c-0.1,0-0.1-0.1-0.2-0.1c-0.1,0-0.1,0-0.2,0c-0.2,0-0.3,0.1-0.5,0.2c-0.2,0.1-0.3,0.3-0.5,0.6
			c-0.2,0.2-0.3,0.5-0.5,0.8c-0.2,0.4-0.3,0.9-0.4,1.4c-0.1,0.5-0.2,1-0.2,1.6v3.6l2.1,0.4v0.8h-5.4v-0.8l1.5-0.4v-8l-1.5-0.4v-0.8
			h2.7l0.4,2.5h0.1c0.3-0.9,0.7-1.5,1.2-2s1-0.7,1.6-0.7c0.5,0,0.9,0.2,1.2,0.5s0.5,0.7,0.5,1.2c0,0.4-0.1,0.7-0.3,0.9
			c-0.2,0.2-0.5,0.3-0.8,0.3c-0.3,0-0.6-0.1-0.8-0.3c-0.2-0.2-0.3-0.5-0.3-0.8c0-0.1,0-0.1,0-0.2S672.1,242.9,672.1,242.8z"/>
		<path d="M678.9,248h-1.1c0-0.5,0.1-1,0.2-1.4s0.3-0.8,0.6-1.2c0.3-0.4,0.7-0.9,1.2-1.4c0.4-0.4,0.8-0.9,1-1.3
			c0.2-0.4,0.3-0.9,0.3-1.4c0-0.8-0.2-1.3-0.6-1.8c-0.4-0.4-0.9-0.6-1.6-0.6c-0.5,0-1,0.1-1.4,0.3c-0.4,0.2-0.6,0.4-0.6,0.7
			c0.3,0.1,0.5,0.3,0.6,0.6c0.1,0.2,0.2,0.5,0.2,0.8c0,0.4-0.1,0.6-0.4,0.9c-0.2,0.2-0.5,0.3-0.9,0.3c-0.4,0-0.7-0.2-1-0.5
			c-0.3-0.3-0.4-0.7-0.4-1.2c0-0.5,0.2-1,0.5-1.5c0.3-0.4,0.8-0.8,1.4-1s1.3-0.4,2-0.4c0.8,0,1.5,0.1,2.1,0.4s1.1,0.7,1.4,1.2
			c0.3,0.5,0.5,1.1,0.5,1.7c0,0.6-0.1,1.1-0.4,1.6s-0.7,1-1.4,1.6c-0.6,0.5-1.1,1-1.4,1.4c-0.3,0.4-0.5,0.7-0.7,1
			C679,247.3,678.9,247.6,678.9,248z M677.2,250.9c0-0.4,0.1-0.7,0.3-0.9c0.2-0.2,0.5-0.3,0.9-0.3c0.4,0,0.7,0.1,0.9,0.3
			c0.2,0.2,0.3,0.5,0.3,0.9c0,0.4-0.1,0.7-0.3,0.9c-0.2,0.2-0.5,0.3-0.9,0.3s-0.7-0.1-0.9-0.3C677.3,251.6,677.2,251.3,677.2,250.9z
			"/>
	</g>
</g>
<g>
	<g>
		<path d="M790.2,118.5l0.6-3.1h1.1v4.2h-10.7v-1.2l8.1-11.4h-5.9l-0.6,2.9h-1v-4h9.7v1.2l-8.1,11.4H790.2z"/>
		<path d="M796.4,109.4v5.4c0,0.8,0,1.4,0.1,1.8s0.1,0.7,0.2,1c0.1,0.3,0.3,0.5,0.6,0.7c0.3,0.2,0.6,0.2,1,0.2c0.3,0,0.7-0.1,1-0.2
			c0.3-0.1,0.6-0.3,0.8-0.5c0.5-0.5,0.8-1.2,0.9-2.2v-5.1l-1.7-0.4v-0.8h3.5v9.1l1.5,0.4v0.8l-2.9,0.2l-0.2-2.1h-0.1
			c-0.4,0.6-0.9,1.2-1.5,1.5c-0.6,0.4-1.3,0.6-2,0.6c-0.5,0-0.9-0.1-1.3-0.3c-0.4-0.2-0.7-0.4-0.9-0.8c-0.2-0.4-0.4-0.9-0.5-1.5
			s-0.2-1.5-0.2-2.6v-4.2l-1.3-0.4v-0.8H796.4z"/>
		<path d="M805.1,110.3v-0.7l1.8-0.3v-0.2c0-1.5,0.3-2.6,1-3.4c0.6-0.8,1.5-1.2,2.6-1.2c0.7,0,1.3,0.2,1.8,0.5
			c0.5,0.4,0.7,0.8,0.7,1.4c0,0.4-0.1,0.6-0.3,0.8c-0.2,0.2-0.4,0.3-0.7,0.3c-0.3,0-0.5-0.1-0.7-0.2c-0.2-0.2-0.3-0.4-0.3-0.7
			c0-0.3,0.1-0.7,0.3-1c-0.2-0.2-0.5-0.3-0.9-0.3c-0.3,0-0.5,0.1-0.8,0.2c-0.3,0.2-0.5,0.4-0.6,0.7s-0.2,0.6-0.2,1
			c0,0.4,0,0.8,0,1.2v1h2.4v0.9h-2.4v8.2l2.1,0.4v0.8h-5.4v-0.8l1.5-0.4v-8.2H805.1z"/>
		<path d="M818.1,110.5c-0.1,0-0.1-0.1-0.2-0.1c-0.1,0-0.1,0-0.2,0c-0.2,0-0.3,0.1-0.5,0.2c-0.2,0.1-0.3,0.3-0.5,0.6
			c-0.2,0.2-0.3,0.5-0.5,0.8c-0.2,0.4-0.3,0.9-0.4,1.4c-0.1,0.5-0.2,1-0.2,1.6v3.6l2.1,0.4v0.8h-5.4v-0.8l1.5-0.4v-8l-1.5-0.4v-0.8
			h2.7l0.4,2.5h0.1c0.3-0.9,0.7-1.5,1.2-2c0.5-0.5,1-0.7,1.6-0.7c0.5,0,0.9,0.2,1.2,0.5s0.5,0.7,0.5,1.2c0,0.4-0.1,0.7-0.3,0.9
			s-0.5,0.3-0.8,0.3c-0.3,0-0.6-0.1-0.8-0.3c-0.2-0.2-0.3-0.5-0.3-0.8c0-0.1,0-0.1,0-0.2C818,110.7,818,110.6,818.1,110.5z"/>
		<path d="M822.5,110.5l-1.5-0.4v-0.8h3.3v9.1l1.5,0.4v0.8h-4.8v-0.8l1.5-0.4V110.5z M822.3,106.3c0-0.4,0.1-0.7,0.3-0.9
			c0.2-0.2,0.5-0.3,0.9-0.3c0.4,0,0.7,0.1,0.9,0.3c0.2,0.2,0.3,0.5,0.3,0.9c0,0.4-0.1,0.6-0.3,0.9c-0.2,0.2-0.5,0.3-0.9,0.3
			s-0.7-0.1-0.9-0.3S822.3,106.7,822.3,106.3z"/>
		<path d="M835.8,114.6h-6.6c0,0.9,0.1,1.7,0.4,2.3c0.3,0.6,0.6,1,1.1,1.3c0.5,0.3,1,0.4,1.5,0.4c0.6,0,1.1-0.1,1.6-0.4
			s0.9-0.6,1.3-1l0.6,0.5c-0.4,0.6-1,1.1-1.6,1.6c-0.6,0.4-1.5,0.6-2.5,0.6c-0.9,0-1.6-0.2-2.3-0.6c-0.7-0.4-1.2-0.9-1.5-1.6
			c-0.2-0.4-0.3-0.8-0.4-1.3c-0.1-0.5-0.1-1-0.1-1.5c0-1.8,0.4-3.1,1.2-4.1c0.8-1,1.9-1.5,3.3-1.5c1.3,0,2.3,0.4,3,1.2
			c0.7,0.8,1.1,1.9,1.1,3.3c0,0.1,0,0.2,0,0.4C835.8,114.2,835.8,114.3,835.8,114.6z M831.6,110.2c-1.5,0-2.4,1.2-2.5,3.5h4.8V113
			c0-0.9-0.2-1.6-0.6-2.1C832.9,110.4,832.4,110.2,831.6,110.2z"/>
		<path d="M837.5,114.6c0-0.8,0.1-1.6,0.3-2.4c0.2-0.7,0.5-1.4,1-1.8c0.4-0.4,0.8-0.7,1.3-0.9c0.5-0.2,1.1-0.3,1.7-0.3
			c0.6,0,1.1,0.1,1.5,0.3c0.5,0.2,0.9,0.6,1.2,1.2v-4.7l-1.5-0.4v-0.8h3.3v13.7l1.5,0.4v0.8l-2.9,0.2l-0.2-1.6
			c-0.4,0.6-0.8,1-1.3,1.2s-1,0.3-1.7,0.3c-0.6,0-1.2-0.1-1.7-0.3c-0.5-0.2-0.9-0.5-1.3-0.9c-0.4-0.5-0.7-1.1-1-1.8
			C837.6,116.1,837.5,115.4,837.5,114.6z M844.6,114.6c0-0.8-0.1-1.4-0.2-2c-0.1-0.6-0.3-1-0.5-1.4c-0.2-0.3-0.5-0.6-0.7-0.8
			s-0.7-0.3-1.2-0.3c-0.4,0-0.8,0.1-1.1,0.2c-0.3,0.2-0.6,0.4-0.8,0.7c-0.2,0.3-0.4,0.8-0.5,1.4c-0.1,0.6-0.2,1.3-0.2,2
			c0,0.8,0.1,1.4,0.2,2c0.1,0.6,0.3,1,0.5,1.4c0.2,0.3,0.5,0.6,0.8,0.7c0.3,0.2,0.7,0.3,1.1,0.3c0.4,0,0.8-0.1,1.1-0.2
			c0.3-0.1,0.6-0.4,0.7-0.7c0.2-0.4,0.4-0.8,0.5-1.4S844.6,115.3,844.6,114.6z"/>
		<path d="M857.9,114.6h-6.6c0,0.9,0.1,1.7,0.4,2.3c0.3,0.6,0.6,1,1.1,1.3c0.5,0.3,1,0.4,1.5,0.4c0.6,0,1.1-0.1,1.6-0.4
			s0.9-0.6,1.3-1l0.6,0.5c-0.4,0.6-1,1.1-1.6,1.6c-0.6,0.4-1.5,0.6-2.5,0.6c-0.9,0-1.6-0.2-2.3-0.6c-0.7-0.4-1.2-0.9-1.5-1.6
			c-0.2-0.4-0.3-0.8-0.4-1.3c-0.1-0.5-0.1-1-0.1-1.5c0-1.8,0.4-3.1,1.2-4.1c0.8-1,1.9-1.5,3.3-1.5c1.3,0,2.3,0.4,3,1.2
			c0.7,0.8,1.1,1.9,1.1,3.3c0,0.1,0,0.2,0,0.4C857.9,114.2,857.9,114.3,857.9,114.6z M853.8,110.2c-1.5,0-2.4,1.2-2.5,3.5h4.8V113
			c0-0.9-0.2-1.6-0.6-2.1C855,110.4,854.5,110.2,853.8,110.2z"/>
		<path d="M860.9,118.5v-8l-1.5-0.4v-0.8h2.7l0.4,1.9h0.1c0.4-0.6,0.9-1.2,1.5-1.5c0.6-0.4,1.3-0.6,2.1-0.6c1.1,0,1.8,0.3,2.3,1
			c0.3,0.4,0.4,0.9,0.5,1.5c0.1,0.6,0.2,1.5,0.2,2.6v4.2l1.5,0.4v0.8h-4.6v-0.8l1.3-0.4v-4.2c0-0.8,0-1.4-0.1-1.8
			c0-0.4-0.1-0.7-0.2-0.9c-0.2-0.3-0.4-0.5-0.7-0.7c-0.3-0.2-0.6-0.2-1-0.2c-0.7,0-1.4,0.2-1.9,0.7c-0.5,0.5-0.8,1.2-0.9,2.2v5.1
			l1.3,0.4v0.8h-4.6v-0.8L860.9,118.5z"/>
		<path d="M875.7,115.7h-1.1c0-0.5,0.1-1,0.2-1.4s0.3-0.8,0.6-1.2c0.3-0.4,0.7-0.9,1.2-1.4c0.4-0.4,0.8-0.9,1-1.3
			c0.2-0.4,0.3-0.9,0.3-1.4c0-0.8-0.2-1.3-0.6-1.8s-0.9-0.6-1.6-0.6c-0.5,0-1,0.1-1.4,0.3c-0.4,0.2-0.6,0.4-0.6,0.7
			c0.3,0.1,0.5,0.3,0.6,0.6s0.2,0.5,0.2,0.8c0,0.4-0.1,0.6-0.4,0.9s-0.5,0.3-0.9,0.3c-0.4,0-0.7-0.2-1-0.5c-0.3-0.3-0.4-0.7-0.4-1.2
			c0-0.5,0.2-1,0.5-1.5c0.3-0.4,0.8-0.8,1.4-1c0.6-0.3,1.3-0.4,2-0.4c0.8,0,1.5,0.1,2.1,0.4c0.6,0.3,1.1,0.7,1.4,1.2
			c0.3,0.5,0.5,1.1,0.5,1.7c0,0.6-0.1,1.1-0.4,1.6c-0.3,0.5-0.7,1-1.4,1.6c-0.6,0.5-1.1,1-1.4,1.4c-0.3,0.4-0.5,0.7-0.7,1
			C875.8,115,875.7,115.3,875.7,115.7z M874,118.6c0-0.4,0.1-0.7,0.3-0.9c0.2-0.2,0.5-0.3,0.9-0.3c0.4,0,0.7,0.1,0.9,0.3
			s0.3,0.5,0.3,0.9c0,0.4-0.1,0.7-0.3,0.9c-0.2,0.2-0.5,0.3-0.9,0.3s-0.7-0.1-0.9-0.3C874.1,119.3,874,119,874,118.6z"/>
	</g>
</g>
<g>
	<g>
		<path d="M1007.9,307.4h-1l-0.3-1.9h-3.2v5.3h5.7l0.6-3.1h1.1v4.2h-11.1v-0.8l1.8-0.4v-11.2l-1.8-0.4v-0.8h10.7v4h-1l-0.6-2.9h-5.4
			v5h3.2l0.3-1.9h1V307.4z"/>
		<path d="M1018.3,302.8c-0.1,0-0.1-0.1-0.2-0.1c-0.1,0-0.1,0-0.2,0c-0.2,0-0.3,0.1-0.5,0.2c-0.2,0.1-0.3,0.3-0.5,0.6
			c-0.2,0.2-0.3,0.5-0.5,0.8c-0.2,0.4-0.3,0.9-0.4,1.4c-0.1,0.5-0.2,1-0.2,1.6v3.6l2.1,0.4v0.8h-5.4v-0.8l1.5-0.4v-8l-1.5-0.4v-0.8
			h2.7l0.4,2.5h0.1c0.3-0.9,0.7-1.5,1.2-2s1-0.7,1.6-0.7c0.5,0,0.9,0.2,1.2,0.5s0.5,0.7,0.5,1.2c0,0.4-0.1,0.7-0.3,0.9
			c-0.2,0.2-0.5,0.3-0.8,0.3c-0.3,0-0.6-0.1-0.8-0.3c-0.2-0.2-0.3-0.5-0.3-0.8c0-0.1,0-0.1,0-0.2S1018.3,302.9,1018.3,302.8z"/>
		<path d="M1022.6,310.8v-12.5l-1.5-0.4v-0.8h3.3v13.7l1.5,0.4v0.8h-4.8v-0.8L1022.6,310.8z"/>
		<path d="M1035.9,306.9h-6.6c0,0.9,0.1,1.7,0.4,2.3c0.3,0.6,0.6,1,1.1,1.3c0.5,0.3,1,0.4,1.5,0.4c0.6,0,1.1-0.1,1.6-0.4
			s0.9-0.6,1.3-1l0.6,0.5c-0.4,0.6-1,1.1-1.6,1.6c-0.6,0.4-1.5,0.6-2.5,0.6c-0.9,0-1.6-0.2-2.3-0.6c-0.7-0.4-1.2-0.9-1.5-1.6
			c-0.2-0.4-0.3-0.8-0.4-1.3c-0.1-0.5-0.1-1-0.1-1.5c0-1.8,0.4-3.1,1.2-4.1c0.8-1,1.9-1.5,3.3-1.5c1.3,0,2.3,0.4,3,1.2
			c0.7,0.8,1.1,1.9,1.1,3.3c0,0.1,0,0.2,0,0.4C1036,306.5,1036,306.7,1035.9,306.9z M1031.8,302.5c-1.5,0-2.4,1.2-2.5,3.5h4.8v-0.6
			c0-0.9-0.2-1.6-0.6-2.1C1033.1,302.7,1032.6,302.5,1031.8,302.5z"/>
		<path d="M1039,302.8l-1.5-0.4v-0.8h3.3v9.1l1.5,0.4v0.8h-4.8v-0.8l1.5-0.4V302.8z M1038.7,298.6c0-0.4,0.1-0.7,0.3-0.9
			c0.2-0.2,0.5-0.3,0.9-0.3c0.4,0,0.7,0.1,0.9,0.3c0.2,0.2,0.3,0.5,0.3,0.9c0,0.4-0.1,0.6-0.3,0.9c-0.2,0.2-0.5,0.3-0.9,0.3
			s-0.7-0.1-0.9-0.3S1038.7,299,1038.7,298.6z"/>
		<path d="M1048.5,301.5c0.7,0,1.4,0.1,1.9,0.4s1,0.6,1.3,1s0.4,1,0.4,1.6c0,0.5-0.1,0.8-0.3,1.1c-0.2,0.3-0.5,0.4-0.9,0.4
			c-0.4,0-0.6-0.1-0.8-0.3c-0.2-0.2-0.3-0.5-0.3-0.8c0-0.3,0.1-0.6,0.3-0.8c0.2-0.2,0.4-0.4,0.7-0.5c-0.2-0.4-0.5-0.6-0.8-0.8
			c-0.3-0.2-0.8-0.2-1.3-0.2c-1,0-1.8,0.3-2.3,1c-0.5,0.7-0.7,1.7-0.7,3.2c0,0.6,0,1.2,0.1,1.6c0.1,0.4,0.2,0.8,0.4,1.1
			c0.3,0.5,0.6,0.8,1,1.1c0.4,0.3,0.9,0.4,1.5,0.4c0.6,0,1.1-0.1,1.7-0.4c0.5-0.3,1-0.6,1.4-1.1l0.6,0.5c-0.5,0.8-1.1,1.3-1.7,1.7
			c-0.7,0.4-1.4,0.6-2.3,0.6c-0.9,0-1.7-0.2-2.3-0.5c-0.7-0.4-1.2-0.9-1.5-1.6c-0.5-0.8-0.7-1.9-0.7-3.1c0-1.1,0.2-2.1,0.6-2.9
			c0.4-0.8,1-1.4,1.7-1.9S1047.5,301.5,1048.5,301.5z"/>
		<path d="M1061.5,310.8v-4.2c0-0.8,0-1.4-0.1-1.8s-0.1-0.7-0.2-1c-0.3-0.6-0.9-0.9-1.7-0.9c-0.4,0-0.7,0.1-1,0.2
			c-0.3,0.1-0.6,0.3-0.9,0.5c-0.3,0.2-0.5,0.5-0.6,0.9s-0.2,0.8-0.2,1.2v5.1l1.3,0.4v0.8h-4.6v-0.8l1.5-0.4v-12.5l-1.5-0.4v-0.8h3.3
			v6.3c0.4-0.6,0.9-1.1,1.5-1.4c0.6-0.4,1.3-0.5,2-0.5c0.5,0,1,0.1,1.4,0.3c0.4,0.2,0.7,0.4,1,0.8c0.3,0.4,0.4,0.9,0.5,1.5
			s0.2,1.5,0.2,2.6v4.2l1.5,0.4v0.8h-4.6v-0.8L1061.5,310.8z"/>
		<path d="M1065.3,302.6v-0.7l1.8-0.3l0.2-2.4l1.6-0.2v2.6h2.4v1h-2.4v6.8c0,0.4,0,0.7,0,0.9s0,0.3,0.1,0.4c0,0.1,0.1,0.1,0.2,0.2
			s0.3,0,0.5,0h1.3v0.6c-0.6,0.2-1.1,0.4-1.6,0.5c-0.5,0.1-0.8,0.2-1.1,0.2c-0.6,0-0.9-0.2-1.1-0.7c-0.1-0.2-0.1-0.3-0.1-0.6
			c0-0.2,0-0.6,0-1.1v-7.1H1065.3z"/>
		<path d="M1081.1,306.9h-6.6c0,0.9,0.1,1.7,0.4,2.3c0.3,0.6,0.6,1,1.1,1.3c0.5,0.3,1,0.4,1.5,0.4c0.6,0,1.1-0.1,1.6-0.4
			s0.9-0.6,1.3-1l0.6,0.5c-0.4,0.6-1,1.1-1.6,1.6c-0.6,0.4-1.5,0.6-2.5,0.6c-0.9,0-1.6-0.2-2.3-0.6c-0.7-0.4-1.2-0.9-1.5-1.6
			c-0.2-0.4-0.3-0.8-0.4-1.3c-0.1-0.5-0.1-1-0.1-1.5c0-1.8,0.4-3.1,1.2-4.1c0.8-1,1.9-1.5,3.3-1.5c1.3,0,2.3,0.4,3,1.2
			c0.7,0.8,1.1,1.9,1.1,3.3c0,0.1,0,0.2,0,0.4C1081.1,306.5,1081.1,306.7,1081.1,306.9z M1077,302.5c-1.5,0-2.4,1.2-2.5,3.5h4.8
			v-0.6c0-0.9-0.2-1.6-0.6-2.1C1078.3,302.7,1077.7,302.5,1077,302.5z"/>
		<path d="M1088.4,302.8c-0.1,0-0.1-0.1-0.2-0.1c-0.1,0-0.1,0-0.2,0c-0.2,0-0.3,0.1-0.5,0.2c-0.2,0.1-0.3,0.3-0.5,0.6
			c-0.2,0.2-0.3,0.5-0.5,0.8c-0.2,0.4-0.3,0.9-0.4,1.4c-0.1,0.5-0.2,1-0.2,1.6v3.6l2.1,0.4v0.8h-5.4v-0.8l1.5-0.4v-8l-1.5-0.4v-0.8
			h2.7l0.4,2.5h0.1c0.3-0.9,0.7-1.5,1.2-2s1-0.7,1.6-0.7c0.5,0,0.9,0.2,1.2,0.5s0.5,0.7,0.5,1.2c0,0.4-0.1,0.7-0.3,0.9
			c-0.2,0.2-0.5,0.3-0.8,0.3c-0.3,0-0.6-0.1-0.8-0.3c-0.2-0.2-0.3-0.5-0.3-0.8c0-0.1,0-0.1,0-0.2S1088.4,302.9,1088.4,302.8z"/>
		<path d="M1090.9,302.6v-0.7l1.8-0.3l0.2-2.4l1.6-0.2v2.6h2.4v1h-2.4v6.8c0,0.4,0,0.7,0,0.9s0,0.3,0.1,0.4c0,0.1,0.1,0.1,0.2,0.2
			s0.3,0,0.5,0h1.3v0.6c-0.6,0.2-1.1,0.4-1.6,0.5c-0.5,0.1-0.8,0.2-1.1,0.2c-0.6,0-0.9-0.2-1.1-0.7c-0.1-0.2-0.1-0.3-0.1-0.6
			c0-0.2,0-0.6,0-1.1v-7.1H1090.9z"/>
		<path d="M1101.7,308h-1.1c0-0.5,0.1-1,0.2-1.4s0.3-0.8,0.6-1.2c0.3-0.4,0.7-0.9,1.2-1.4c0.4-0.4,0.8-0.9,1-1.3
			c0.2-0.4,0.3-0.9,0.3-1.4c0-0.8-0.2-1.3-0.6-1.8c-0.4-0.4-0.9-0.6-1.6-0.6c-0.5,0-1,0.1-1.4,0.3c-0.4,0.2-0.6,0.4-0.6,0.7
			c0.3,0.1,0.5,0.3,0.6,0.6c0.1,0.2,0.2,0.5,0.2,0.8c0,0.4-0.1,0.6-0.4,0.9c-0.2,0.2-0.5,0.3-0.9,0.3c-0.4,0-0.7-0.2-1-0.5
			c-0.3-0.3-0.4-0.7-0.4-1.2c0-0.5,0.2-1,0.5-1.5c0.3-0.4,0.8-0.8,1.4-1s1.3-0.4,2-0.4c0.8,0,1.5,0.1,2.1,0.4s1.1,0.7,1.4,1.2
			c0.3,0.5,0.5,1.1,0.5,1.7c0,0.6-0.1,1.1-0.4,1.6s-0.7,1-1.4,1.6c-0.6,0.5-1.1,1-1.4,1.4c-0.3,0.4-0.5,0.7-0.7,1
			C1101.8,307.3,1101.7,307.6,1101.7,308z M1100,310.9c0-0.4,0.1-0.7,0.3-0.9c0.2-0.2,0.5-0.3,0.9-0.3c0.4,0,0.7,0.1,0.9,0.3
			c0.2,0.2,0.3,0.5,0.3,0.9c0,0.4-0.1,0.7-0.3,0.9c-0.2,0.2-0.5,0.3-0.9,0.3s-0.7-0.1-0.9-0.3C1100.1,311.6,1100,311.3,1100,310.9z"
			/>
	</g>
</g>
<g>
	<g>
		<path d="M223.4,279.5v11.2l1.8,0.4v0.8h-5.5v-0.8l1.8-0.4v-11.2l-1.8-0.4v-0.8h5.5v0.8L223.4,279.5z"/>
		<path d="M228.2,290.8v-8l-1.5-0.4v-0.8h2.7l0.4,1.9h0.1c0.4-0.6,0.9-1.2,1.5-1.5c0.6-0.4,1.3-0.6,2.1-0.6c1.1,0,1.8,0.3,2.3,1
			c0.3,0.4,0.4,0.9,0.5,1.5s0.2,1.5,0.2,2.6v4.2l1.5,0.4v0.8h-4.6v-0.8l1.3-0.4v-4.2c0-0.8,0-1.4-0.1-1.8s-0.1-0.7-0.2-1
			c-0.2-0.3-0.4-0.5-0.7-0.7c-0.3-0.2-0.6-0.2-1-0.2c-0.7,0-1.4,0.2-1.9,0.7c-0.5,0.5-0.8,1.2-0.9,2.2v5.1l1.3,0.4v0.8h-4.6v-0.8
			L228.2,290.8z"/>
		<path d="M243.1,291.2c0.7,0,1.3-0.1,1.7-0.4c0.4-0.3,0.7-0.7,0.7-1.2c0-0.4-0.1-0.8-0.4-1c-0.3-0.3-0.6-0.5-1-0.6
			c-0.4-0.2-0.8-0.3-1.2-0.4c-0.5-0.2-1-0.4-1.5-0.6c-0.5-0.2-0.9-0.5-1.2-0.9c-0.3-0.4-0.5-0.9-0.5-1.6c0-0.9,0.3-1.6,1-2.2
			c0.7-0.6,1.6-0.8,2.8-0.8c1,0,1.8,0.2,2.4,0.6c0.6,0.4,0.9,1,0.9,1.7c0,0.4-0.1,0.7-0.3,0.9c-0.2,0.2-0.4,0.4-0.8,0.4
			c-0.3,0-0.5-0.1-0.7-0.3s-0.3-0.4-0.3-0.7c0-0.2,0.1-0.5,0.2-0.7s0.3-0.3,0.5-0.4c-0.2-0.3-0.4-0.5-0.7-0.6
			c-0.3-0.1-0.7-0.2-1.1-0.2c-0.8,0-1.3,0.1-1.7,0.4c-0.4,0.3-0.6,0.7-0.6,1.2c0,0.4,0.1,0.7,0.3,0.9s0.5,0.4,0.8,0.6
			s0.8,0.3,1.3,0.5c0.4,0.1,0.9,0.3,1.3,0.4c0.4,0.2,0.8,0.4,1.1,0.6c0.3,0.2,0.6,0.5,0.8,0.9s0.3,0.8,0.3,1.3
			c0,0.6-0.2,1.2-0.5,1.7c-0.4,0.5-0.8,0.8-1.5,1.1s-1.3,0.4-2.1,0.4c-1.1,0-2-0.2-2.7-0.7c-0.7-0.5-1-1.1-1-1.8
			c0-0.4,0.1-0.7,0.3-1c0.2-0.2,0.4-0.4,0.8-0.4c0.3,0,0.6,0.1,0.8,0.3s0.3,0.4,0.3,0.7c0,0.2-0.1,0.5-0.2,0.7
			c-0.1,0.2-0.3,0.4-0.5,0.5c0.2,0.2,0.5,0.4,0.9,0.6C242.1,291.2,242.6,291.2,243.1,291.2z"/>
		<path d="M251.8,294.2l1.8,0.4v0.8h-5.1v-0.8l1.5-0.4v-11.4l-1.5-0.4v-0.8h2.7l0.3,1.5c0.4-0.6,0.9-1.1,1.4-1.3s1.1-0.4,1.7-0.4
			s1.2,0.1,1.8,0.3c0.5,0.2,1,0.5,1.3,0.9c0.4,0.5,0.7,1.1,0.9,1.7c0.2,0.7,0.3,1.4,0.3,2.2c0,0.8-0.1,1.6-0.4,2.3s-0.6,1.3-1,1.8
			c-0.7,0.8-1.7,1.2-3.1,1.2c-0.5,0-1-0.1-1.5-0.3s-0.8-0.6-1.2-1.1V294.2z M251.8,286.6c0,0.7,0.1,1.4,0.2,2c0.1,0.6,0.3,1,0.5,1.3
			c0.2,0.3,0.5,0.6,0.8,0.7c0.3,0.2,0.7,0.3,1.1,0.3c0.4,0,0.8-0.1,1.1-0.2c0.3-0.2,0.6-0.4,0.8-0.7c0.2-0.3,0.4-0.8,0.5-1.3
			c0.1-0.6,0.2-1.2,0.2-2c0-0.7-0.1-1.4-0.2-1.9c-0.1-0.5-0.3-1-0.5-1.3c-0.2-0.3-0.5-0.6-0.8-0.8c-0.3-0.2-0.7-0.3-1.2-0.3
			c-0.4,0-0.8,0.1-1.1,0.2c-0.3,0.1-0.6,0.4-0.8,0.7c-0.2,0.3-0.4,0.8-0.5,1.3C251.9,285.2,251.8,285.9,251.8,286.6z"/>
		<path d="M261.9,282.8l-1.5-0.4v-0.8h3.3v9.1l1.5,0.4v0.8h-4.8v-0.8l1.5-0.4V282.8z M261.7,278.6c0-0.4,0.1-0.7,0.3-0.9
			c0.2-0.2,0.5-0.3,0.9-0.3c0.4,0,0.7,0.1,0.9,0.3c0.2,0.2,0.3,0.5,0.3,0.9c0,0.4-0.1,0.6-0.3,0.9c-0.2,0.2-0.5,0.3-0.9,0.3
			c-0.4,0-0.7-0.1-0.9-0.3S261.7,279,261.7,278.6z"/>
		<path d="M272.1,282.8c-0.1,0-0.1-0.1-0.2-0.1c-0.1,0-0.1,0-0.2,0c-0.2,0-0.3,0.1-0.5,0.2c-0.2,0.1-0.3,0.3-0.5,0.6
			c-0.2,0.2-0.3,0.5-0.5,0.8c-0.2,0.4-0.3,0.9-0.4,1.4c-0.1,0.5-0.2,1-0.2,1.6v3.6l2.1,0.4v0.8h-5.4v-0.8l1.5-0.4v-8l-1.5-0.4v-0.8
			h2.7l0.4,2.5h0.1c0.3-0.9,0.7-1.5,1.2-2c0.5-0.5,1-0.7,1.6-0.7c0.5,0,0.9,0.2,1.2,0.5c0.3,0.3,0.5,0.7,0.5,1.2
			c0,0.4-0.1,0.7-0.3,0.9c-0.2,0.2-0.5,0.3-0.8,0.3c-0.3,0-0.6-0.1-0.8-0.3c-0.2-0.2-0.3-0.5-0.3-0.8c0-0.1,0-0.1,0-0.2
			C272.1,283,272.1,282.9,272.1,282.8z"/>
		<path d="M276.6,282.8l-1.5-0.4v-0.8h3.3v9.1l1.5,0.4v0.8h-4.8v-0.8l1.5-0.4V282.8z M276.3,278.6c0-0.4,0.1-0.7,0.3-0.9
			c0.2-0.2,0.5-0.3,0.9-0.3c0.4,0,0.7,0.1,0.9,0.3c0.2,0.2,0.3,0.5,0.3,0.9c0,0.4-0.1,0.6-0.3,0.9c-0.2,0.2-0.5,0.3-0.9,0.3
			c-0.4,0-0.7-0.1-0.9-0.3S276.3,279,276.3,278.6z"/>
		<path d="M289.8,286.9h-6.6c0,0.9,0.1,1.7,0.4,2.3c0.3,0.6,0.6,1,1.1,1.3c0.5,0.3,1,0.4,1.5,0.4c0.6,0,1.1-0.1,1.6-0.4
			c0.5-0.2,0.9-0.6,1.3-1l0.6,0.5c-0.4,0.6-1,1.1-1.6,1.6s-1.5,0.6-2.5,0.6c-0.9,0-1.6-0.2-2.3-0.6c-0.7-0.4-1.2-0.9-1.5-1.6
			c-0.2-0.4-0.3-0.8-0.4-1.3c-0.1-0.5-0.1-1-0.1-1.5c0-1.8,0.4-3.1,1.2-4.1c0.8-1,1.9-1.5,3.3-1.5c1.3,0,2.3,0.4,3,1.2
			c0.7,0.8,1.1,1.9,1.1,3.3c0,0.1,0,0.2,0,0.4C289.8,286.5,289.8,286.7,289.8,286.9z M285.7,282.5c-1.5,0-2.4,1.2-2.5,3.5h4.8v-0.6
			c0-0.9-0.2-1.6-0.6-2.1C287,282.7,286.4,282.5,285.7,282.5z"/>
		<path d="M297.1,282.8c-0.1,0-0.1-0.1-0.2-0.1c-0.1,0-0.1,0-0.2,0c-0.2,0-0.3,0.1-0.5,0.2c-0.2,0.1-0.3,0.3-0.5,0.6
			c-0.2,0.2-0.3,0.5-0.5,0.8c-0.2,0.4-0.3,0.9-0.4,1.4c-0.1,0.5-0.2,1-0.2,1.6v3.6l2.1,0.4v0.8h-5.4v-0.8l1.5-0.4v-8l-1.5-0.4v-0.8
			h2.7l0.4,2.5h0.1c0.3-0.9,0.7-1.5,1.2-2c0.5-0.5,1-0.7,1.6-0.7c0.5,0,0.9,0.2,1.2,0.5c0.3,0.3,0.5,0.7,0.5,1.2
			c0,0.4-0.1,0.7-0.3,0.9c-0.2,0.2-0.5,0.3-0.8,0.3c-0.3,0-0.6-0.1-0.8-0.3c-0.2-0.2-0.3-0.5-0.3-0.8c0-0.1,0-0.1,0-0.2
			C297,283,297.1,282.9,297.1,282.8z"/>
		<path d="M299.6,282.6v-0.7l1.8-0.3l0.2-2.4l1.6-0.2v2.6h2.4v1h-2.4v6.8c0,0.4,0,0.7,0,0.9s0,0.3,0.1,0.4c0,0.1,0.1,0.1,0.2,0.2
			c0.1,0,0.3,0,0.5,0h1.3v0.6c-0.6,0.2-1.1,0.4-1.6,0.5s-0.8,0.2-1.1,0.2c-0.6,0-0.9-0.2-1.1-0.7c-0.1-0.2-0.1-0.3-0.1-0.6
			c0-0.2,0-0.6,0-1.1v-7.1H299.6z"/>
		<path d="M314.4,281.7v5.4c0,0.8,0,1.4,0.1,1.8c0,0.4,0.1,0.7,0.2,1c0.1,0.3,0.3,0.5,0.6,0.7c0.3,0.2,0.6,0.2,1,0.2
			c0.3,0,0.7-0.1,1-0.2c0.3-0.1,0.6-0.3,0.8-0.5c0.5-0.5,0.8-1.2,0.9-2.2v-5.1l-1.7-0.4v-0.8h3.5v9.1l1.5,0.4v0.8l-2.9,0.2l-0.2-2.1
			H319c-0.4,0.6-0.9,1.2-1.5,1.5c-0.6,0.4-1.3,0.6-2,0.6c-0.5,0-0.9-0.1-1.3-0.3c-0.4-0.2-0.7-0.4-0.9-0.8c-0.2-0.4-0.4-0.9-0.5-1.5
			c-0.1-0.6-0.2-1.5-0.2-2.6v-4.2l-1.3-0.4v-0.8H314.4z"/>
		<path d="M324.9,290.8v-8l-1.5-0.4v-0.8h2.7l0.4,1.9h0.1c0.4-0.6,0.9-1.2,1.5-1.5c0.6-0.4,1.3-0.6,2.1-0.6c1.1,0,1.8,0.3,2.3,1
			c0.3,0.4,0.4,0.9,0.5,1.5s0.2,1.5,0.2,2.6v4.2l1.5,0.4v0.8h-4.6v-0.8l1.3-0.4v-4.2c0-0.8,0-1.4-0.1-1.8s-0.1-0.7-0.2-1
			c-0.2-0.3-0.4-0.5-0.7-0.7c-0.3-0.2-0.6-0.2-1-0.2c-0.7,0-1.4,0.2-1.9,0.7c-0.5,0.5-0.8,1.2-0.9,2.2v5.1l1.3,0.4v0.8h-4.6v-0.8
			L324.9,290.8z"/>
		<path d="M336,286.9c0-0.8,0.1-1.6,0.3-2.4c0.2-0.7,0.5-1.4,1-1.8c0.4-0.4,0.8-0.7,1.3-0.9c0.5-0.2,1.1-0.3,1.7-0.3
			c0.6,0,1.1,0.1,1.5,0.3c0.5,0.2,0.9,0.6,1.2,1.2v-4.7l-1.5-0.4v-0.8h3.3v13.7l1.5,0.4v0.8l-2.9,0.2l-0.2-1.6
			c-0.4,0.6-0.8,1-1.3,1.2c-0.5,0.2-1,0.3-1.7,0.3c-0.6,0-1.2-0.1-1.7-0.3c-0.5-0.2-1-0.5-1.3-0.9c-0.4-0.5-0.7-1.1-1-1.8
			S336,287.7,336,286.9z M343.2,286.9c0-0.8-0.1-1.4-0.2-2c-0.1-0.6-0.3-1-0.5-1.4c-0.2-0.3-0.4-0.6-0.7-0.8
			c-0.3-0.2-0.7-0.3-1.2-0.3c-0.4,0-0.8,0.1-1.1,0.2c-0.3,0.2-0.6,0.4-0.8,0.7c-0.2,0.3-0.4,0.8-0.5,1.4c-0.1,0.6-0.2,1.3-0.2,2
			c0,0.8,0.1,1.4,0.2,2c0.1,0.6,0.3,1,0.5,1.4c0.2,0.3,0.5,0.6,0.8,0.7c0.3,0.2,0.7,0.3,1.1,0.3c0.4,0,0.8-0.1,1.1-0.2
			c0.3-0.1,0.6-0.4,0.7-0.7c0.2-0.4,0.4-0.8,0.5-1.4C343.1,288.3,343.2,287.6,343.2,286.9z"/>
		<path d="M352.5,289.7c0-1,0.5-1.8,1.4-2.3c0.9-0.6,2.5-1,4.6-1.3c-0.1-0.7-0.1-1.3-0.2-1.7c-0.1-0.4-0.2-0.8-0.3-1
			c-0.2-0.3-0.4-0.6-0.7-0.7c-0.3-0.2-0.7-0.2-1-0.2c-0.4,0-0.7,0.1-1,0.2c-0.3,0.1-0.5,0.3-0.6,0.5c0.2,0.1,0.3,0.3,0.4,0.5
			c0.1,0.2,0.1,0.4,0.1,0.6c0,0.3-0.1,0.6-0.3,0.8s-0.5,0.3-0.8,0.3c-0.3,0-0.6-0.1-0.8-0.3c-0.2-0.2-0.3-0.5-0.3-0.9
			c0-0.5,0.2-1,0.6-1.3c0.4-0.4,0.8-0.6,1.4-0.8c0.6-0.2,1.1-0.3,1.7-0.3c0.5,0,1,0.1,1.4,0.2c0.4,0.2,0.8,0.4,1.1,0.7
			c0.8,0.8,1.2,2.2,1.2,4.2v2.8c0,0.6,0,1.1,0.1,1.3c0.1,0.2,0.3,0.4,0.5,0.4h0.9v0.6c-0.9,0.4-1.6,0.6-2.1,0.6
			c-0.4,0-0.7-0.1-0.8-0.4s-0.2-0.8-0.2-1.6h-0.1c-0.4,0.6-0.9,1.2-1.6,1.5s-1.3,0.6-2.1,0.6c-0.8,0-1.4-0.2-1.9-0.6
			C352.7,291,352.5,290.4,352.5,289.7z M355.9,291c0.4,0,0.7-0.1,1.1-0.3s0.7-0.4,1-0.8c0.2-0.3,0.4-0.6,0.4-0.9
			c0.1-0.3,0.1-0.8,0.1-1.2c0-0.2,0-0.4,0-0.6c0-0.2,0-0.4-0.1-0.6c-1,0.2-1.8,0.4-2.4,0.7s-1,0.5-1.2,0.8c-0.2,0.3-0.4,0.7-0.4,1.2
			c0,0.5,0.1,1,0.4,1.3C355.1,290.9,355.4,291,355.9,291z"/>
		<path d="M364.1,290.8v-8l-1.5-0.4v-0.8h2.7l0.4,1.9h0.1c0.4-0.6,0.9-1.2,1.5-1.5c0.6-0.4,1.3-0.6,2.1-0.6c1.1,0,1.8,0.3,2.3,1
			c0.3,0.4,0.4,0.9,0.5,1.5s0.2,1.5,0.2,2.6v4.2l1.5,0.4v0.8h-4.6v-0.8l1.3-0.4v-4.2c0-0.8,0-1.4-0.1-1.8s-0.1-0.7-0.2-1
			c-0.2-0.3-0.4-0.5-0.7-0.7c-0.3-0.2-0.6-0.2-1-0.2c-0.7,0-1.4,0.2-1.9,0.7c-0.5,0.5-0.8,1.2-0.9,2.2v5.1l1.3,0.4v0.8h-4.6v-0.8
			L364.1,290.8z"/>
		<path d="M384,292.1c0,1-0.4,1.8-1.2,2.4c-0.8,0.6-2,0.9-3.4,0.9c-1,0-1.8-0.1-2.4-0.3c-0.7-0.2-1.2-0.5-1.5-0.8
			c-0.3-0.4-0.5-0.8-0.5-1.3c0-0.6,0.2-1.1,0.5-1.4c0.4-0.3,0.8-0.5,1.5-0.6V291c-0.8-0.2-1.3-0.7-1.3-1.5c0-0.3,0.1-0.5,0.2-0.8
			c0.1-0.2,0.3-0.5,0.6-0.7c0.3-0.2,0.6-0.4,1-0.5c-0.6-0.2-1.1-0.6-1.4-1.1c-0.3-0.5-0.5-1.1-0.5-1.8c0-1,0.4-1.8,1.1-2.4
			c0.7-0.6,1.6-0.9,2.8-0.9c0.6,0,1.1,0.1,1.6,0.2s0.9,0.4,1.2,0.7l0.6-0.2l1.7-0.8h0.3v1.7h-0.3l-1.3-0.2h-0.6
			c0.4,0.5,0.6,1.1,0.6,1.8c0,1-0.3,1.8-1,2.4c-0.7,0.6-1.6,0.9-2.9,0.9c-0.1,0-0.3,0-0.4,0c-0.1,0-0.3,0-0.4,0
			c-0.5,0.1-0.9,0.2-1.1,0.4c-0.2,0.2-0.4,0.4-0.4,0.7c0,0.3,0.1,0.5,0.3,0.6c0.2,0.1,0.7,0.2,1.3,0.2h2.2c1,0,1.8,0.2,2.4,0.6
			C383.8,290.7,384,291.3,384,292.1z M380.1,291.2h-1.2c-0.8,0-1.5,0.1-1.8,0.4c-0.4,0.3-0.6,0.7-0.6,1.1c0,1.2,1,1.7,3,1.7
			c1.1,0,1.9-0.2,2.5-0.5s0.8-0.8,0.8-1.4c0-0.5-0.2-0.9-0.6-1.1C381.7,291.3,381,291.2,380.1,291.2z M377.2,284.7
			c0,0.8,0.2,1.3,0.5,1.7c0.3,0.4,0.9,0.6,1.6,0.6c0.7,0,1.3-0.2,1.6-0.6c0.3-0.4,0.5-1,0.5-1.7s-0.2-1.3-0.5-1.7
			c-0.3-0.4-0.9-0.6-1.6-0.6c-0.7,0-1.3,0.2-1.6,0.6C377.4,283.3,377.2,283.9,377.2,284.7z"/>
		<path d="M394.5,286.9h-6.6c0,0.9,0.1,1.7,0.4,2.3c0.3,0.6,0.6,1,1.1,1.3c0.5,0.3,1,0.4,1.5,0.4c0.6,0,1.1-0.1,1.6-0.4
			c0.5-0.2,0.9-0.6,1.3-1l0.6,0.5c-0.4,0.6-1,1.1-1.6,1.6s-1.5,0.6-2.5,0.6c-0.9,0-1.6-0.2-2.3-0.6c-0.7-0.4-1.2-0.9-1.5-1.6
			c-0.2-0.4-0.3-0.8-0.4-1.3c-0.1-0.5-0.1-1-0.1-1.5c0-1.8,0.4-3.1,1.2-4.1c0.8-1,1.9-1.5,3.3-1.5c1.3,0,2.3,0.4,3,1.2
			c0.7,0.8,1.1,1.9,1.1,3.3c0,0.1,0,0.2,0,0.4C394.5,286.5,394.5,286.7,394.5,286.9z M390.4,282.5c-1.5,0-2.4,1.2-2.5,3.5h4.8v-0.6
			c0-0.9-0.2-1.6-0.6-2.1C391.7,282.7,391.1,282.5,390.4,282.5z"/>
		<path d="M401.8,282.8c-0.1,0-0.1-0.1-0.2-0.1c-0.1,0-0.1,0-0.2,0c-0.2,0-0.3,0.1-0.5,0.2c-0.2,0.1-0.3,0.3-0.5,0.6
			c-0.2,0.2-0.3,0.5-0.5,0.8c-0.2,0.4-0.3,0.9-0.4,1.4c-0.1,0.5-0.2,1-0.2,1.6v3.6l2.1,0.4v0.8h-5.4v-0.8l1.5-0.4v-8l-1.5-0.4v-0.8
			h2.7l0.4,2.5h0.1c0.3-0.9,0.7-1.5,1.2-2c0.5-0.5,1-0.7,1.6-0.7c0.5,0,0.9,0.2,1.2,0.5c0.3,0.3,0.5,0.7,0.5,1.2
			c0,0.4-0.1,0.7-0.3,0.9c-0.2,0.2-0.5,0.3-0.8,0.3c-0.3,0-0.6-0.1-0.8-0.3c-0.2-0.2-0.3-0.5-0.3-0.8c0-0.1,0-0.1,0-0.2
			C401.7,283,401.8,282.9,401.8,282.8z"/>
		<path d="M413.5,286.9h-6.6c0,0.9,0.1,1.7,0.4,2.3c0.3,0.6,0.6,1,1.1,1.3c0.5,0.3,1,0.4,1.5,0.4c0.6,0,1.1-0.1,1.6-0.4
			c0.5-0.2,0.9-0.6,1.3-1l0.6,0.5c-0.4,0.6-1,1.1-1.6,1.6s-1.5,0.6-2.5,0.6c-0.9,0-1.6-0.2-2.3-0.6c-0.7-0.4-1.2-0.9-1.5-1.6
			c-0.2-0.4-0.3-0.8-0.4-1.3c-0.1-0.5-0.1-1-0.1-1.5c0-1.8,0.4-3.1,1.2-4.1c0.8-1,1.9-1.5,3.3-1.5c1.3,0,2.3,0.4,3,1.2
			c0.7,0.8,1.1,1.9,1.1,3.3c0,0.1,0,0.2,0,0.4C413.6,286.5,413.6,286.7,413.5,286.9z M409.4,282.5c-1.5,0-2.4,1.2-2.5,3.5h4.8v-0.6
			c0-0.9-0.2-1.6-0.6-2.1C410.7,282.7,410.2,282.5,409.4,282.5z"/>
		<path d="M424.1,292.1c0,1-0.4,1.8-1.2,2.4c-0.8,0.6-2,0.9-3.4,0.9c-1,0-1.8-0.1-2.4-0.3c-0.7-0.2-1.2-0.5-1.5-0.8
			c-0.3-0.4-0.5-0.8-0.5-1.3c0-0.6,0.2-1.1,0.5-1.4c0.4-0.3,0.8-0.5,1.5-0.6V291c-0.8-0.2-1.3-0.7-1.3-1.5c0-0.3,0.1-0.5,0.2-0.8
			c0.1-0.2,0.3-0.5,0.6-0.7c0.3-0.2,0.6-0.4,1-0.5c-0.6-0.2-1.1-0.6-1.4-1.1c-0.3-0.5-0.5-1.1-0.5-1.8c0-1,0.4-1.8,1.1-2.4
			c0.7-0.6,1.6-0.9,2.8-0.9c0.6,0,1.1,0.1,1.6,0.2s0.9,0.4,1.2,0.7l0.6-0.2l1.7-0.8h0.3v1.7h-0.3l-1.3-0.2h-0.6
			c0.4,0.5,0.6,1.1,0.6,1.8c0,1-0.3,1.8-1,2.4c-0.7,0.6-1.6,0.9-2.9,0.9c-0.1,0-0.3,0-0.4,0c-0.1,0-0.3,0-0.4,0
			c-0.5,0.1-0.9,0.2-1.1,0.4c-0.2,0.2-0.4,0.4-0.4,0.7c0,0.3,0.1,0.5,0.3,0.6c0.2,0.1,0.7,0.2,1.3,0.2h2.2c1,0,1.8,0.2,2.4,0.6
			C423.8,290.7,424.1,291.3,424.1,292.1z M420.1,291.2h-1.2c-0.8,0-1.5,0.1-1.8,0.4c-0.4,0.3-0.6,0.7-0.6,1.1c0,1.2,1,1.7,3,1.7
			c1.1,0,1.9-0.2,2.5-0.5s0.8-0.8,0.8-1.4c0-0.5-0.2-0.9-0.6-1.1C421.7,291.3,421,291.2,420.1,291.2z M417.2,284.7
			c0,0.8,0.2,1.3,0.5,1.7c0.3,0.4,0.9,0.6,1.6,0.6c0.7,0,1.3-0.2,1.6-0.6c0.3-0.4,0.5-1,0.5-1.7s-0.2-1.3-0.5-1.7
			c-0.3-0.4-0.9-0.6-1.6-0.6c-0.7,0-1.3,0.2-1.6,0.6C417.4,283.3,417.2,283.9,417.2,284.7z"/>
		<path d="M425.2,282.6v-0.7l1.8-0.3l0.2-2.4l1.6-0.2v2.6h2.4v1h-2.4v6.8c0,0.4,0,0.7,0,0.9s0,0.3,0.1,0.4c0,0.1,0.1,0.1,0.2,0.2
			c0.1,0,0.3,0,0.5,0h1.3v0.6c-0.6,0.2-1.1,0.4-1.6,0.5s-0.8,0.2-1.1,0.2c-0.6,0-0.9-0.2-1.1-0.7c-0.1-0.2-0.1-0.3-0.1-0.6
			c0-0.2,0-0.6,0-1.1v-7.1H425.2z"/>
		<path d="M436.1,288H435c0-0.5,0.1-1,0.2-1.4c0.1-0.4,0.3-0.8,0.6-1.2c0.3-0.4,0.7-0.9,1.2-1.4c0.4-0.4,0.8-0.9,1-1.3
			c0.2-0.4,0.3-0.9,0.3-1.4c0-0.8-0.2-1.3-0.6-1.8c-0.4-0.4-0.9-0.6-1.6-0.6c-0.5,0-1,0.1-1.4,0.3s-0.6,0.4-0.6,0.7
			c0.3,0.1,0.5,0.3,0.6,0.6c0.1,0.2,0.2,0.5,0.2,0.8c0,0.4-0.1,0.6-0.4,0.9c-0.2,0.2-0.5,0.3-0.9,0.3c-0.4,0-0.7-0.2-1-0.5
			c-0.3-0.3-0.4-0.7-0.4-1.2c0-0.5,0.2-1,0.5-1.5c0.3-0.4,0.8-0.8,1.4-1s1.3-0.4,2-0.4c0.8,0,1.5,0.1,2.1,0.4
			c0.6,0.3,1.1,0.7,1.4,1.2c0.3,0.5,0.5,1.1,0.5,1.7c0,0.6-0.1,1.1-0.4,1.6c-0.3,0.5-0.7,1-1.4,1.6c-0.6,0.5-1.1,1-1.4,1.4
			c-0.3,0.4-0.5,0.7-0.7,1C436.1,287.3,436.1,287.6,436.1,288z M434.4,290.9c0-0.4,0.1-0.7,0.3-0.9c0.2-0.2,0.5-0.3,0.9-0.3
			c0.4,0,0.7,0.1,0.9,0.3c0.2,0.2,0.3,0.5,0.3,0.9c0,0.4-0.1,0.7-0.3,0.9s-0.5,0.3-0.9,0.3c-0.4,0-0.7-0.1-0.9-0.3
			S434.4,291.3,434.4,290.9z"/>
	</g>
</g>
<g>
	<g>
		<path d="M486.4,141.2h-1l-0.3-1.9h-3.2v5.3h5.7l0.6-3.1h1.1v4.2h-11.1V145l1.8-0.4v-11.2l-1.8-0.4v-0.8h10.7v4h-1l-0.6-2.9h-5.4v5
			h3.2l0.3-1.9h1V141.2z"/>
		<path d="M496.8,136.6c-0.1,0-0.1-0.1-0.2-0.1c-0.1,0-0.1,0-0.2,0c-0.2,0-0.3,0.1-0.5,0.2c-0.2,0.1-0.3,0.3-0.5,0.6
			c-0.2,0.2-0.3,0.5-0.5,0.8c-0.2,0.4-0.3,0.9-0.4,1.4c-0.1,0.5-0.2,1-0.2,1.6v3.6l2.1,0.4v0.8h-5.4V145l1.5-0.4v-8l-1.5-0.4v-0.8
			h2.7l0.4,2.5h0.1c0.3-0.9,0.7-1.5,1.2-2c0.5-0.5,1-0.7,1.6-0.7c0.5,0,0.9,0.2,1.2,0.5c0.3,0.3,0.5,0.7,0.5,1.2
			c0,0.4-0.1,0.7-0.3,0.9c-0.2,0.2-0.5,0.3-0.8,0.3c-0.3,0-0.6-0.1-0.8-0.3c-0.2-0.2-0.3-0.5-0.3-0.8c0-0.1,0-0.1,0-0.2
			C496.7,136.8,496.8,136.7,496.8,136.6z"/>
		<path d="M501.2,144.6v-8l-1.5-0.4v-0.8h2.7l0.4,1.9h0.1c0.4-0.6,0.9-1.1,1.5-1.5c0.6-0.4,1.3-0.6,2-0.6c0.5,0,1,0.1,1.4,0.3
			c0.4,0.2,0.7,0.4,0.9,0.7c0.2,0.3,0.4,0.7,0.5,1.3c0.4-0.7,0.9-1.3,1.6-1.7s1.3-0.6,2.1-0.6c0.5,0,1,0.1,1.4,0.3
			c0.4,0.2,0.7,0.5,0.9,0.8c0.2,0.2,0.3,0.6,0.4,0.9c0.1,0.4,0.2,0.9,0.2,1.5s0.1,1.4,0.1,2.3v3.5l1.5,0.4v0.8h-4.6V145l1.3-0.4
			v-4.2c0-0.8,0-1.4-0.1-1.8c0-0.4-0.1-0.7-0.2-0.9c-0.2-0.3-0.4-0.5-0.6-0.7c-0.3-0.2-0.6-0.2-1-0.2c-0.3,0-0.6,0.1-0.9,0.2
			c-0.3,0.1-0.6,0.3-0.8,0.5c-0.3,0.3-0.5,0.6-0.6,0.9c-0.1,0.3-0.2,0.8-0.2,1.3v5.1l1.3,0.4v0.8h-4.4V145l1.3-0.4v-4.2
			c0-0.8,0-1.4-0.1-1.8c0-0.4-0.1-0.7-0.2-0.9c-0.2-0.3-0.4-0.5-0.6-0.7c-0.3-0.2-0.6-0.2-1-0.2c-0.3,0-0.6,0.1-0.9,0.2
			c-0.3,0.1-0.6,0.3-0.8,0.5c-0.3,0.3-0.5,0.6-0.6,0.9c-0.1,0.3-0.2,0.8-0.2,1.3v5.1l1.3,0.4v0.8h-4.6V145L501.2,144.6z"/>
		<path d="M521.3,135.5v5.4c0,0.8,0,1.4,0.1,1.8s0.1,0.7,0.2,1c0.1,0.3,0.3,0.5,0.6,0.7c0.3,0.2,0.6,0.2,1,0.2c0.3,0,0.7-0.1,1-0.2
			c0.3-0.1,0.6-0.3,0.8-0.5c0.5-0.5,0.8-1.2,0.9-2.2v-5.1l-1.7-0.4v-0.8h3.5v9.1l1.5,0.4v0.8l-2.9,0.2l-0.2-2.1h-0.1
			c-0.4,0.6-0.9,1.2-1.5,1.5s-1.3,0.6-2,0.6c-0.5,0-0.9-0.1-1.3-0.3c-0.4-0.2-0.7-0.4-0.9-0.8c-0.2-0.4-0.4-0.9-0.5-1.5
			c-0.1-0.6-0.2-1.5-0.2-2.6v-4.2l-1.3-0.4v-0.8H521.3z"/>
		<path d="M529.8,136.5v-0.7l1.8-0.3l0.2-2.4l1.6-0.2v2.6h2.4v0.9h-2.4v6.8c0,0.4,0,0.7,0,0.9c0,0.2,0,0.3,0.1,0.4
			c0,0.1,0.1,0.1,0.2,0.2c0.1,0,0.3,0,0.5,0h1.3v0.6c-0.6,0.2-1.1,0.4-1.6,0.5s-0.8,0.2-1.1,0.2c-0.6,0-0.9-0.2-1.1-0.7
			c-0.1-0.2-0.1-0.3-0.1-0.6c0-0.2,0-0.6,0-1.1v-7.1H529.8z"/>
		<path d="M538.3,136.6l-1.5-0.4v-0.8h3.3v9.1l1.5,0.4v0.8h-4.8V145l1.5-0.4V136.6z M538,132.5c0-0.4,0.1-0.7,0.3-0.9
			c0.2-0.2,0.5-0.3,0.9-0.3c0.4,0,0.7,0.1,0.9,0.3c0.2,0.2,0.3,0.5,0.3,0.9c0,0.4-0.1,0.6-0.3,0.9c-0.2,0.2-0.5,0.3-0.9,0.3
			c-0.4,0-0.7-0.1-0.9-0.3S538,132.8,538,132.5z"/>
		<path d="M551.7,146c0,1-0.4,1.8-1.2,2.4c-0.8,0.6-2,0.9-3.4,0.9c-1,0-1.8-0.1-2.4-0.3s-1.2-0.5-1.5-0.8c-0.3-0.4-0.5-0.8-0.5-1.3
			c0-0.6,0.2-1.1,0.5-1.4c0.4-0.3,0.8-0.5,1.5-0.6v-0.1c-0.8-0.2-1.3-0.7-1.3-1.5c0-0.3,0.1-0.5,0.2-0.8c0.1-0.2,0.3-0.5,0.6-0.7
			c0.3-0.2,0.6-0.4,1-0.5c-0.6-0.2-1.1-0.6-1.4-1.1c-0.3-0.5-0.5-1.1-0.5-1.8c0-1,0.4-1.8,1.1-2.4c0.7-0.6,1.6-0.9,2.8-0.9
			c0.6,0,1.1,0.1,1.6,0.2s0.9,0.4,1.2,0.7l0.6-0.2l1.7-0.8h0.3v1.7h-0.3l-1.3-0.2h-0.6c0.4,0.5,0.6,1.1,0.6,1.8c0,1-0.3,1.8-1,2.4
			c-0.7,0.6-1.6,0.9-2.9,0.9c-0.1,0-0.3,0-0.4,0c-0.1,0-0.3,0-0.4,0c-0.5,0.1-0.9,0.2-1.1,0.4s-0.4,0.4-0.4,0.7s0.1,0.5,0.3,0.6
			c0.2,0.1,0.7,0.2,1.3,0.2h2.2c1,0,1.8,0.2,2.4,0.6C551.4,144.5,551.7,145.1,551.7,146z M547.7,145h-1.2c-0.8,0-1.5,0.1-1.8,0.4
			c-0.4,0.3-0.6,0.7-0.6,1.1c0,1.2,1,1.7,3,1.7c1.1,0,1.9-0.2,2.5-0.5c0.6-0.3,0.8-0.8,0.8-1.4c0-0.5-0.2-0.9-0.6-1.1
			C549.4,145.1,548.7,145,547.7,145z M544.9,138.5c0,0.8,0.2,1.3,0.5,1.7c0.3,0.4,0.9,0.6,1.6,0.6c0.7,0,1.3-0.2,1.6-0.6
			c0.3-0.4,0.5-1,0.5-1.7c0-0.8-0.2-1.3-0.5-1.7c-0.3-0.4-0.9-0.6-1.6-0.6c-0.7,0-1.3,0.2-1.6,0.6
			C545,137.2,544.9,137.8,544.9,138.5z"/>
		<path d="M552.9,136.5v-0.7l1.8-0.3l0.2-2.4l1.6-0.2v2.6h2.4v0.9h-2.4v6.8c0,0.4,0,0.7,0,0.9c0,0.2,0,0.3,0.1,0.4
			c0,0.1,0.1,0.1,0.2,0.2c0.1,0,0.3,0,0.5,0h1.3v0.6c-0.6,0.2-1.1,0.4-1.6,0.5s-0.8,0.2-1.1,0.2c-0.6,0-0.9-0.2-1.1-0.7
			c-0.1-0.2-0.1-0.3-0.1-0.6c0-0.2,0-0.6,0-1.1v-7.1H552.9z"/>
		<path d="M563.7,141.9h-1.1c0-0.5,0.1-1,0.2-1.4c0.1-0.4,0.3-0.8,0.6-1.2c0.3-0.4,0.7-0.9,1.2-1.4c0.4-0.4,0.8-0.9,1-1.3
			c0.2-0.4,0.3-0.9,0.3-1.4c0-0.8-0.2-1.3-0.6-1.8s-0.9-0.6-1.6-0.6c-0.5,0-1,0.1-1.4,0.3s-0.6,0.4-0.6,0.7c0.3,0.1,0.5,0.3,0.6,0.6
			s0.2,0.5,0.2,0.8c0,0.4-0.1,0.6-0.4,0.9s-0.5,0.3-0.9,0.3c-0.4,0-0.7-0.2-1-0.5c-0.3-0.3-0.4-0.7-0.4-1.2c0-0.5,0.2-1,0.5-1.5
			c0.3-0.4,0.8-0.8,1.4-1c0.6-0.3,1.3-0.4,2-0.4c0.8,0,1.5,0.1,2.1,0.4c0.6,0.3,1.1,0.7,1.4,1.2c0.3,0.5,0.5,1.1,0.5,1.7
			c0,0.6-0.1,1.1-0.4,1.6c-0.3,0.5-0.7,1-1.4,1.6c-0.6,0.5-1.1,1-1.4,1.4c-0.3,0.4-0.5,0.7-0.7,1
			C563.8,141.1,563.7,141.5,563.7,141.9z M562,144.8c0-0.4,0.1-0.7,0.3-0.9s0.5-0.3,0.9-0.3c0.4,0,0.7,0.1,0.9,0.3s0.3,0.5,0.3,0.9
			c0,0.4-0.1,0.7-0.3,0.9s-0.5,0.3-0.9,0.3c-0.4,0-0.7-0.1-0.9-0.3S562,145.1,562,144.8z"/>
	</g>
</g>
<g>
	<g>
		<path d="M989.1,196.7h6.4c1.9,0,3.4,0.5,4.4,1.6c0.6,0.6,1.1,1.4,1.4,2.2c0.3,0.9,0.5,1.8,0.5,2.8c0,1.1-0.2,2.1-0.5,3
			c-0.3,0.9-0.8,1.7-1.4,2.3c-1.1,1.1-2.6,1.7-4.5,1.7h-6.2v-0.8l1.6-0.4v-11.2l-1.6-0.4V196.7z M992.6,209.2h2.9
			c0.7,0,1.3-0.1,1.8-0.3c0.5-0.2,0.9-0.5,1.2-0.9c0.4-0.4,0.6-1,0.8-1.7c0.2-0.7,0.3-1.6,0.3-2.6c0-2-0.3-3.4-1-4.4
			c-0.3-0.5-0.8-0.8-1.3-1.1c-0.5-0.2-1.1-0.3-1.9-0.3h-2.8V209.2z"/>
		<path d="M1003.4,208.2c0-1,0.5-1.8,1.4-2.3c0.9-0.6,2.5-1,4.6-1.3c-0.1-0.7-0.1-1.3-0.2-1.7s-0.2-0.8-0.3-1
			c-0.2-0.3-0.4-0.6-0.7-0.7c-0.3-0.2-0.7-0.2-1-0.2c-0.4,0-0.7,0.1-1,0.2c-0.3,0.1-0.5,0.3-0.6,0.5c0.2,0.1,0.3,0.3,0.4,0.5
			c0.1,0.2,0.1,0.4,0.1,0.6c0,0.3-0.1,0.6-0.3,0.8s-0.5,0.3-0.8,0.3c-0.3,0-0.6-0.1-0.8-0.3c-0.2-0.2-0.3-0.5-0.3-0.9
			c0-0.5,0.2-1,0.6-1.3s0.8-0.6,1.4-0.8s1.1-0.3,1.7-0.3c0.5,0,1,0.1,1.4,0.2c0.4,0.2,0.8,0.4,1.1,0.7c0.8,0.8,1.2,2.2,1.2,4.2v2.8
			c0,0.6,0,1.1,0.1,1.3c0.1,0.2,0.3,0.4,0.5,0.4h0.9v0.6c-0.9,0.4-1.6,0.6-2.1,0.6c-0.4,0-0.7-0.1-0.8-0.4c-0.1-0.3-0.2-0.8-0.2-1.6
			h-0.1c-0.4,0.6-0.9,1.2-1.6,1.5c-0.6,0.4-1.3,0.6-2.1,0.6c-0.8,0-1.4-0.2-1.9-0.6S1003.4,208.9,1003.4,208.2z M1006.8,209.5
			c0.4,0,0.7-0.1,1.1-0.3s0.7-0.4,1-0.8c0.2-0.3,0.4-0.6,0.4-0.9c0.1-0.3,0.1-0.8,0.1-1.2c0-0.2,0-0.4,0-0.6s0-0.4-0.1-0.6
			c-1,0.2-1.8,0.4-2.4,0.7c-0.6,0.2-1,0.5-1.2,0.8c-0.2,0.3-0.4,0.7-0.4,1.2c0,0.5,0.1,1,0.4,1.3S1006.3,209.5,1006.8,209.5z"/>
		<path d="M1015.1,209.2v-8l-1.5-0.4v-0.8h2.7l0.4,1.9h0.1c0.4-0.6,0.9-1.2,1.5-1.5c0.6-0.4,1.3-0.6,2.1-0.6c1.1,0,1.8,0.3,2.3,1
			c0.3,0.4,0.4,0.9,0.5,1.5s0.2,1.5,0.2,2.6v4.2l1.5,0.4v0.8h-4.6v-0.8l1.3-0.4V205c0-0.8,0-1.4-0.1-1.8c0-0.4-0.1-0.7-0.2-1
			c-0.2-0.3-0.4-0.5-0.7-0.7s-0.6-0.2-1-0.2c-0.7,0-1.4,0.2-1.9,0.7c-0.5,0.5-0.8,1.2-0.9,2.2v5.1l1.3,0.4v0.8h-4.6v-0.8
			L1015.1,209.2z"/>
		<path d="M1032.4,209.6l1.1-0.4l-2.9-4l-1.4,1.2v2.7l1.5,0.4v0.8h-4.8v-0.8l1.5-0.4v-12.5l-1.5-0.4v-0.8h3.3v10.1l4-4.4l-1.3-0.4
			v-0.8h4.1v0.8l-1.4,0.4l-2.9,2.9l3.8,5.1l1,0.3v0.8h-4.2V209.6z"/>
		<path d="M1047.2,205.2c0,0.8-0.1,1.6-0.4,2.3c-0.2,0.7-0.6,1.3-1,1.8c-0.7,0.8-1.7,1.2-3.1,1.2c-0.6,0-1.2-0.1-1.7-0.4
			c-0.5-0.3-1-0.9-1.3-1.7l-0.6,1.9h-0.9v-13.7l-1.5-0.4v-0.8h3.3v5.7c0.4-0.5,0.8-0.8,1.3-1c0.5-0.2,1-0.3,1.6-0.3
			c0.6,0,1.2,0.1,1.8,0.3s1,0.5,1.3,0.9c0.4,0.5,0.7,1.1,0.9,1.8C1047.1,203.6,1047.2,204.3,1047.2,205.2z M1040.1,205.2
			c0,0.8,0.1,1.4,0.2,2c0.1,0.6,0.3,1,0.5,1.4c0.2,0.3,0.5,0.6,0.8,0.7c0.3,0.2,0.7,0.3,1.1,0.3c0.4,0,0.8-0.1,1.1-0.2
			c0.3-0.2,0.6-0.4,0.8-0.7c0.2-0.3,0.4-0.8,0.5-1.4c0.1-0.6,0.2-1.3,0.2-2s-0.1-1.4-0.2-2c-0.1-0.6-0.3-1-0.5-1.4
			c-0.2-0.3-0.5-0.6-0.8-0.8c-0.3-0.2-0.7-0.3-1.2-0.3c-0.4,0-0.8,0.1-1.1,0.2c-0.3,0.1-0.6,0.4-0.8,0.7c-0.2,0.4-0.4,0.8-0.5,1.4
			C1040.2,203.7,1040.1,204.4,1040.1,205.2z"/>
		<path d="M1048.8,208.2c0-1,0.5-1.8,1.4-2.3c0.9-0.6,2.5-1,4.6-1.3c-0.1-0.7-0.1-1.3-0.2-1.7s-0.2-0.8-0.3-1
			c-0.2-0.3-0.4-0.6-0.7-0.7c-0.3-0.2-0.7-0.2-1-0.2c-0.4,0-0.7,0.1-1,0.2c-0.3,0.1-0.5,0.3-0.6,0.5c0.2,0.1,0.3,0.3,0.4,0.5
			c0.1,0.2,0.1,0.4,0.1,0.6c0,0.3-0.1,0.6-0.3,0.8s-0.5,0.3-0.8,0.3c-0.3,0-0.6-0.1-0.8-0.3c-0.2-0.2-0.3-0.5-0.3-0.9
			c0-0.5,0.2-1,0.6-1.3s0.8-0.6,1.4-0.8s1.1-0.3,1.7-0.3c0.5,0,1,0.1,1.4,0.2c0.4,0.2,0.8,0.4,1.1,0.7c0.8,0.8,1.2,2.2,1.2,4.2v2.8
			c0,0.6,0,1.1,0.1,1.3c0.1,0.2,0.3,0.4,0.5,0.4h0.9v0.6c-0.9,0.4-1.6,0.6-2.1,0.6c-0.4,0-0.7-0.1-0.8-0.4c-0.1-0.3-0.2-0.8-0.2-1.6
			h-0.1c-0.4,0.6-0.9,1.2-1.6,1.5c-0.6,0.4-1.3,0.6-2.1,0.6c-0.8,0-1.4-0.2-1.9-0.6S1048.8,208.9,1048.8,208.2z M1052.2,209.5
			c0.4,0,0.7-0.1,1.1-0.3s0.7-0.4,1-0.8c0.2-0.3,0.4-0.6,0.4-0.9c0.1-0.3,0.1-0.8,0.1-1.2c0-0.2,0-0.4,0-0.6s0-0.4-0.1-0.6
			c-1,0.2-1.8,0.4-2.4,0.7c-0.6,0.2-1,0.5-1.2,0.8c-0.2,0.3-0.4,0.7-0.4,1.2c0,0.5,0.1,1,0.4,1.3S1051.7,209.5,1052.2,209.5z"/>
		<path d="M1064.7,201.2c-0.1,0-0.1-0.1-0.2-0.1c-0.1,0-0.1,0-0.2,0c-0.2,0-0.3,0.1-0.5,0.2c-0.2,0.1-0.3,0.3-0.5,0.6
			c-0.2,0.2-0.3,0.5-0.5,0.8c-0.2,0.4-0.3,0.9-0.4,1.4c-0.1,0.5-0.2,1-0.2,1.6v3.6l2.1,0.4v0.8h-5.4v-0.8l1.5-0.4v-8l-1.5-0.4v-0.8
			h2.7l0.4,2.5h0.1c0.3-0.9,0.7-1.5,1.2-2c0.5-0.5,1-0.7,1.6-0.7c0.5,0,0.9,0.2,1.2,0.5s0.5,0.7,0.5,1.2c0,0.4-0.1,0.7-0.3,0.9
			c-0.2,0.2-0.5,0.3-0.8,0.3c-0.3,0-0.6-0.1-0.8-0.3c-0.2-0.2-0.3-0.5-0.3-0.8c0-0.1,0-0.1,0-0.2S1064.7,201.4,1064.7,201.2z"/>
		<path d="M1071.5,206.5h-1.1c0-0.5,0.1-1,0.2-1.4s0.3-0.8,0.6-1.2c0.3-0.4,0.7-0.9,1.2-1.4c0.4-0.4,0.8-0.9,1-1.3
			c0.2-0.4,0.3-0.9,0.3-1.4c0-0.8-0.2-1.3-0.6-1.8s-0.9-0.6-1.6-0.6c-0.5,0-1,0.1-1.4,0.3c-0.4,0.2-0.6,0.4-0.6,0.7
			c0.3,0.1,0.5,0.3,0.6,0.6s0.2,0.5,0.2,0.8c0,0.4-0.1,0.6-0.4,0.9s-0.5,0.3-0.9,0.3c-0.4,0-0.7-0.2-1-0.5c-0.3-0.3-0.4-0.7-0.4-1.2
			c0-0.5,0.2-1,0.5-1.5c0.3-0.4,0.8-0.8,1.4-1c0.6-0.3,1.3-0.4,2-0.4c0.8,0,1.5,0.1,2.1,0.4c0.6,0.3,1.1,0.7,1.4,1.2
			c0.3,0.5,0.5,1.1,0.5,1.7c0,0.6-0.1,1.1-0.4,1.6c-0.3,0.5-0.7,1-1.4,1.6c-0.6,0.5-1.1,1-1.4,1.4c-0.3,0.4-0.5,0.7-0.7,1
			C1071.6,205.8,1071.5,206.1,1071.5,206.5z M1069.8,209.4c0-0.4,0.1-0.7,0.3-0.9c0.2-0.2,0.5-0.3,0.9-0.3c0.4,0,0.7,0.1,0.9,0.3
			c0.2,0.2,0.3,0.5,0.3,0.9c0,0.4-0.1,0.7-0.3,0.9c-0.2,0.2-0.5,0.3-0.9,0.3s-0.7-0.1-0.9-0.3
			C1069.9,210.1,1069.8,209.8,1069.8,209.4z"/>
	</g>
</g>
<g>
	<g>
		<path d="M123,246.1v-11.2l-1.6-0.4v-0.8h3.6l7.1,10.5v-9.3l-1.6-0.4v-0.8h4.4v0.8l-1.6,0.4v12.5H132l-7.8-11.4v10.2l1.6,0.4v0.8
			h-4.4v-0.8L123,246.1z"/>
		<path d="M145.1,242.3h-6.6c0,0.9,0.1,1.7,0.4,2.3c0.3,0.6,0.6,1,1.1,1.3c0.5,0.3,1,0.4,1.5,0.4c0.6,0,1.1-0.1,1.6-0.4
			c0.5-0.2,0.9-0.6,1.3-1l0.6,0.5c-0.4,0.6-1,1.1-1.6,1.6s-1.5,0.6-2.5,0.6c-0.9,0-1.6-0.2-2.3-0.6c-0.7-0.4-1.2-0.9-1.5-1.6
			c-0.2-0.4-0.3-0.8-0.4-1.3c-0.1-0.5-0.1-1-0.1-1.5c0-1.8,0.4-3.1,1.2-4.1c0.8-1,1.9-1.5,3.3-1.5c1.3,0,2.3,0.4,3,1.2
			c0.7,0.8,1.1,1.9,1.1,3.3c0,0.1,0,0.2,0,0.4C145.2,241.9,145.1,242,145.1,242.3z M141,237.9c-1.5,0-2.4,1.2-2.5,3.5h4.8v-0.6
			c0-0.9-0.2-1.6-0.6-2.1C142.3,238.1,141.7,237.9,141,237.9z"/>
		<path d="M149.7,237v5.4c0,0.8,0,1.4,0.1,1.8c0,0.4,0.1,0.7,0.2,1c0.1,0.3,0.3,0.5,0.6,0.7c0.3,0.2,0.6,0.2,1,0.2
			c0.3,0,0.7-0.1,1-0.2c0.3-0.1,0.6-0.3,0.8-0.5c0.5-0.5,0.8-1.2,0.9-2.2v-5.1l-1.7-0.4V237h3.5v9.1l1.5,0.4v0.8l-2.9,0.2l-0.2-2.1
			h-0.1c-0.4,0.6-0.9,1.2-1.5,1.5c-0.6,0.4-1.3,0.6-2,0.6c-0.5,0-0.9-0.1-1.3-0.3c-0.4-0.2-0.7-0.4-0.9-0.8
			c-0.2-0.4-0.4-0.9-0.5-1.5c-0.1-0.6-0.2-1.5-0.2-2.6v-4.2l-1.3-0.4V237H149.7z"/>
		<path d="M167.7,247.5c0,1-0.4,1.8-1.2,2.4c-0.8,0.6-2,0.9-3.4,0.9c-1,0-1.8-0.1-2.4-0.3c-0.7-0.2-1.2-0.5-1.5-0.8
			c-0.3-0.4-0.5-0.8-0.5-1.3c0-0.6,0.2-1.1,0.5-1.4c0.4-0.3,0.8-0.5,1.5-0.6v-0.1c-0.8-0.2-1.3-0.7-1.3-1.5c0-0.3,0.1-0.5,0.2-0.8
			c0.1-0.2,0.3-0.5,0.6-0.7c0.3-0.2,0.6-0.4,1-0.5c-0.6-0.2-1.1-0.6-1.4-1.1c-0.3-0.5-0.5-1.1-0.5-1.8c0-1,0.4-1.8,1.1-2.4
			c0.7-0.6,1.6-0.9,2.8-0.9c0.6,0,1.1,0.1,1.6,0.2s0.9,0.4,1.2,0.7l0.6-0.2l1.7-0.8h0.3v1.7h-0.3l-1.3-0.2h-0.6
			c0.4,0.5,0.6,1.1,0.6,1.8c0,1-0.3,1.8-1,2.4c-0.7,0.6-1.6,0.9-2.9,0.9c-0.1,0-0.3,0-0.4,0c-0.1,0-0.3,0-0.4,0
			c-0.5,0.1-0.9,0.2-1.1,0.4c-0.2,0.2-0.4,0.4-0.4,0.7c0,0.3,0.1,0.5,0.3,0.6c0.2,0.1,0.7,0.2,1.3,0.2h2.2c1,0,1.8,0.2,2.4,0.6
			C167.4,246.1,167.7,246.7,167.7,247.5z M163.7,246.5h-1.2c-0.8,0-1.5,0.1-1.8,0.4c-0.4,0.3-0.6,0.7-0.6,1.1c0,1.2,1,1.7,3,1.7
			c1.1,0,1.9-0.2,2.5-0.5s0.8-0.8,0.8-1.4c0-0.5-0.2-0.9-0.6-1.1C165.3,246.6,164.7,246.5,163.7,246.5z M160.8,240
			c0,0.8,0.2,1.3,0.5,1.7c0.3,0.4,0.9,0.6,1.6,0.6c0.7,0,1.3-0.2,1.6-0.6c0.3-0.4,0.5-1,0.5-1.7s-0.2-1.3-0.5-1.7
			c-0.3-0.4-0.9-0.6-1.6-0.6c-0.7,0-1.3,0.2-1.6,0.6C161,238.7,160.8,239.3,160.8,240z"/>
		<path d="M170.8,238.2l-1.5-0.4V237h3.3v9.1l1.5,0.4v0.8h-4.8v-0.8l1.5-0.4V238.2z M170.6,234c0-0.4,0.1-0.7,0.3-0.9
			c0.2-0.2,0.5-0.3,0.9-0.3c0.4,0,0.7,0.1,0.9,0.3c0.2,0.2,0.3,0.5,0.3,0.9c0,0.4-0.1,0.6-0.3,0.9c-0.2,0.2-0.5,0.3-0.9,0.3
			c-0.4,0-0.7-0.1-0.9-0.3S170.6,234.4,170.6,234z"/>
		<path d="M184.1,242.3h-6.6c0,0.9,0.1,1.7,0.4,2.3c0.3,0.6,0.6,1,1.1,1.3c0.5,0.3,1,0.4,1.5,0.4c0.6,0,1.1-0.1,1.6-0.4
			c0.5-0.2,0.9-0.6,1.3-1l0.6,0.5c-0.4,0.6-1,1.1-1.6,1.6s-1.5,0.6-2.5,0.6c-0.9,0-1.6-0.2-2.3-0.6c-0.7-0.4-1.2-0.9-1.5-1.6
			c-0.2-0.4-0.3-0.8-0.4-1.3c-0.1-0.5-0.1-1-0.1-1.5c0-1.8,0.4-3.1,1.2-4.1c0.8-1,1.9-1.5,3.3-1.5c1.3,0,2.3,0.4,3,1.2
			c0.7,0.8,1.1,1.9,1.1,3.3c0,0.1,0,0.2,0,0.4C184.1,241.9,184.1,242,184.1,242.3z M179.9,237.9c-1.5,0-2.4,1.2-2.5,3.5h4.8v-0.6
			c0-0.9-0.2-1.6-0.6-2.1C181.2,238.1,180.7,237.9,179.9,237.9z"/>
		<path d="M191.3,238.1c-0.1,0-0.1-0.1-0.2-0.1c-0.1,0-0.1,0-0.2,0c-0.2,0-0.3,0.1-0.5,0.2c-0.2,0.1-0.3,0.3-0.5,0.6
			c-0.2,0.2-0.3,0.5-0.5,0.8c-0.2,0.4-0.3,0.9-0.4,1.4c-0.1,0.5-0.2,1-0.2,1.6v3.6l2.1,0.4v0.8h-5.4v-0.8l1.5-0.4v-8l-1.5-0.4V237
			h2.7l0.4,2.5h0.1c0.3-0.9,0.7-1.5,1.2-2c0.5-0.5,1-0.7,1.6-0.7c0.5,0,0.9,0.2,1.2,0.5c0.3,0.3,0.5,0.7,0.5,1.2
			c0,0.4-0.1,0.7-0.3,0.9c-0.2,0.2-0.5,0.3-0.8,0.3c-0.3,0-0.6-0.1-0.8-0.3c-0.2-0.2-0.3-0.5-0.3-0.8c0-0.1,0-0.1,0-0.2
			C191.3,238.4,191.3,238.3,191.3,238.1z"/>
		<path d="M195.8,238.2l-1.5-0.4V237h3.3v9.1l1.5,0.4v0.8h-4.8v-0.8l1.5-0.4V238.2z M195.5,234c0-0.4,0.1-0.7,0.3-0.9
			c0.2-0.2,0.5-0.3,0.9-0.3c0.4,0,0.7,0.1,0.9,0.3c0.2,0.2,0.3,0.5,0.3,0.9c0,0.4-0.1,0.6-0.3,0.9c-0.2,0.2-0.5,0.3-0.9,0.3
			c-0.4,0-0.7-0.1-0.9-0.3S195.5,234.4,195.5,234z"/>
		<path d="M209.2,247.5c0,1-0.4,1.8-1.2,2.4c-0.8,0.6-2,0.9-3.4,0.9c-1,0-1.8-0.1-2.4-0.3c-0.7-0.2-1.2-0.5-1.5-0.8
			c-0.3-0.4-0.5-0.8-0.5-1.3c0-0.6,0.2-1.1,0.5-1.4c0.4-0.3,0.8-0.5,1.5-0.6v-0.1c-0.8-0.2-1.3-0.7-1.3-1.5c0-0.3,0.1-0.5,0.2-0.8
			c0.1-0.2,0.3-0.5,0.6-0.7c0.3-0.2,0.6-0.4,1-0.5c-0.6-0.2-1.1-0.6-1.4-1.1c-0.3-0.5-0.5-1.1-0.5-1.8c0-1,0.4-1.8,1.1-2.4
			c0.7-0.6,1.6-0.9,2.8-0.9c0.6,0,1.1,0.1,1.6,0.2s0.9,0.4,1.2,0.7l0.6-0.2l1.7-0.8h0.3v1.7h-0.3l-1.3-0.2h-0.6
			c0.4,0.5,0.6,1.1,0.6,1.8c0,1-0.3,1.8-1,2.4c-0.7,0.6-1.6,0.9-2.9,0.9c-0.1,0-0.3,0-0.4,0c-0.1,0-0.3,0-0.4,0
			c-0.5,0.1-0.9,0.2-1.1,0.4c-0.2,0.2-0.4,0.4-0.4,0.7c0,0.3,0.1,0.5,0.3,0.6c0.2,0.1,0.7,0.2,1.3,0.2h2.2c1,0,1.8,0.2,2.4,0.6
			C208.9,246.1,209.2,246.7,209.2,247.5z M205.2,246.5H204c-0.8,0-1.5,0.1-1.8,0.4c-0.4,0.3-0.6,0.7-0.6,1.1c0,1.2,1,1.7,3,1.7
			c1.1,0,1.9-0.2,2.5-0.5s0.8-0.8,0.8-1.4c0-0.5-0.2-0.9-0.6-1.1C206.9,246.6,206.2,246.5,205.2,246.5z M202.4,240
			c0,0.8,0.2,1.3,0.5,1.7c0.3,0.4,0.9,0.6,1.6,0.6c0.7,0,1.3-0.2,1.6-0.6c0.3-0.4,0.5-1,0.5-1.7s-0.2-1.3-0.5-1.7
			c-0.3-0.4-0.9-0.6-1.6-0.6c-0.7,0-1.3,0.2-1.6,0.6C202.5,238.7,202.4,239.3,202.4,240z"/>
		<path d="M215.8,245.1c0-1,0.5-1.8,1.4-2.3c0.9-0.6,2.5-1,4.6-1.3c-0.1-0.7-0.1-1.3-0.2-1.7c-0.1-0.4-0.2-0.8-0.3-1
			c-0.2-0.3-0.4-0.6-0.7-0.7c-0.3-0.2-0.7-0.2-1-0.2c-0.4,0-0.7,0.1-1,0.2c-0.3,0.1-0.5,0.3-0.6,0.5c0.2,0.1,0.3,0.3,0.4,0.5
			c0.1,0.2,0.1,0.4,0.1,0.6c0,0.3-0.1,0.6-0.3,0.8s-0.5,0.3-0.8,0.3c-0.3,0-0.6-0.1-0.8-0.3c-0.2-0.2-0.3-0.5-0.3-0.9
			c0-0.5,0.2-1,0.6-1.3c0.4-0.4,0.8-0.6,1.4-0.8c0.6-0.2,1.1-0.3,1.7-0.3c0.5,0,1,0.1,1.4,0.2c0.4,0.2,0.8,0.4,1.1,0.7
			c0.8,0.8,1.2,2.2,1.2,4.2v2.8c0,0.6,0,1.1,0.1,1.3c0.1,0.2,0.3,0.4,0.5,0.4h0.9v0.6c-0.9,0.4-1.6,0.6-2.1,0.6
			c-0.4,0-0.7-0.1-0.8-0.4s-0.2-0.8-0.2-1.6H222c-0.4,0.6-0.9,1.2-1.6,1.5s-1.3,0.6-2.1,0.6c-0.8,0-1.4-0.2-1.9-0.6
			C216,246.4,215.8,245.8,215.8,245.1z M219.1,246.4c0.4,0,0.7-0.1,1.1-0.3s0.7-0.4,1-0.8c0.2-0.3,0.4-0.6,0.4-0.9
			c0.1-0.3,0.1-0.8,0.1-1.2c0-0.2,0-0.4,0-0.6c0-0.2,0-0.4-0.1-0.6c-1,0.2-1.8,0.4-2.4,0.7s-1,0.5-1.2,0.8c-0.2,0.3-0.4,0.7-0.4,1.2
			c0,0.5,0.1,1,0.4,1.3C218.3,246.2,218.7,246.4,219.1,246.4z"/>
		<path d="M228.9,237v5.4c0,0.8,0,1.4,0.1,1.8c0,0.4,0.1,0.7,0.2,1c0.1,0.3,0.3,0.5,0.6,0.7c0.3,0.2,0.6,0.2,1,0.2
			c0.3,0,0.7-0.1,1-0.2c0.3-0.1,0.6-0.3,0.8-0.5c0.5-0.5,0.8-1.2,0.9-2.2v-5.1l-1.7-0.4V237h3.5v9.1l1.5,0.4v0.8l-2.9,0.2l-0.2-2.1
			h-0.1c-0.4,0.6-0.9,1.2-1.5,1.5c-0.6,0.4-1.3,0.6-2,0.6c-0.5,0-0.9-0.1-1.3-0.3c-0.4-0.2-0.7-0.4-0.9-0.8
			c-0.2-0.4-0.4-0.9-0.5-1.5c-0.1-0.6-0.2-1.5-0.2-2.6v-4.2l-1.3-0.4V237H228.9z"/>
		<path d="M237.6,238v-0.7l1.8-0.3v-0.2c0-1.5,0.3-2.6,0.9-3.4s1.5-1.2,2.6-1.2c0.7,0,1.3,0.2,1.8,0.5c0.4,0.4,0.7,0.8,0.7,1.4
			c0,0.4-0.1,0.6-0.3,0.8s-0.4,0.3-0.7,0.3c-0.3,0-0.5-0.1-0.7-0.2c-0.2-0.2-0.3-0.4-0.3-0.7c0-0.3,0.1-0.7,0.3-1
			c-0.2-0.2-0.5-0.3-0.9-0.3c-0.3,0-0.5,0.1-0.8,0.2c-0.3,0.2-0.5,0.4-0.6,0.7c-0.1,0.3-0.2,0.6-0.2,1c0,0.4,0,0.8,0,1.2v1h2.4v1
			h-2.4v8.2l2.1,0.4v0.8H238v-0.8l1.5-0.4V238H237.6z"/>
		<path d="M251.1,246.2v-8l-1.5-0.4V237h2.7l0.4,1.9h0.1c0.4-0.6,0.9-1.1,1.5-1.5c0.6-0.4,1.3-0.6,2-0.6c0.5,0,1,0.1,1.4,0.3
			c0.4,0.2,0.7,0.4,0.9,0.7c0.2,0.3,0.4,0.7,0.5,1.3c0.4-0.7,0.9-1.3,1.6-1.7s1.3-0.6,2.1-0.6c0.5,0,1,0.1,1.4,0.3
			c0.4,0.2,0.7,0.5,0.9,0.8c0.2,0.2,0.3,0.6,0.4,0.9c0.1,0.4,0.2,0.9,0.2,1.5s0.1,1.4,0.1,2.3v3.5l1.5,0.4v0.8h-4.6v-0.8l1.3-0.4
			v-4.2c0-0.8,0-1.4-0.1-1.8s-0.1-0.7-0.2-1c-0.2-0.3-0.4-0.5-0.6-0.7s-0.6-0.2-1-0.2c-0.3,0-0.6,0.1-0.9,0.2
			c-0.3,0.1-0.6,0.3-0.8,0.5c-0.3,0.3-0.5,0.6-0.6,0.9c-0.1,0.3-0.2,0.8-0.2,1.3v5.1l1.3,0.4v0.8h-4.4v-0.8l1.3-0.4v-4.2
			c0-0.8,0-1.4-0.1-1.8s-0.1-0.7-0.2-1c-0.2-0.3-0.4-0.5-0.6-0.7c-0.3-0.2-0.6-0.2-1-0.2c-0.3,0-0.6,0.1-0.9,0.2
			c-0.3,0.1-0.6,0.3-0.8,0.5c-0.3,0.3-0.5,0.6-0.6,0.9s-0.2,0.8-0.2,1.3v5.1l1.3,0.4v0.8h-4.6v-0.8L251.1,246.2z"/>
		<path d="M277,242.3h-6.6c0,0.9,0.1,1.7,0.4,2.3c0.3,0.6,0.6,1,1.1,1.3c0.5,0.3,1,0.4,1.5,0.4c0.6,0,1.1-0.1,1.6-0.4
			c0.5-0.2,0.9-0.6,1.3-1l0.6,0.5c-0.4,0.6-1,1.1-1.6,1.6s-1.5,0.6-2.5,0.6c-0.9,0-1.6-0.2-2.3-0.6c-0.7-0.4-1.2-0.9-1.5-1.6
			c-0.2-0.4-0.3-0.8-0.4-1.3c-0.1-0.5-0.1-1-0.1-1.5c0-1.8,0.4-3.1,1.2-4.1c0.8-1,1.9-1.5,3.3-1.5c1.3,0,2.3,0.4,3,1.2
			c0.7,0.8,1.1,1.9,1.1,3.3c0,0.1,0,0.2,0,0.4C277,241.9,277,242,277,242.3z M272.9,237.9c-1.5,0-2.4,1.2-2.5,3.5h4.8v-0.6
			c0-0.9-0.2-1.6-0.6-2.1C274.1,238.1,273.6,237.9,272.9,237.9z"/>
		<path d="M286.4,246.2v-4.2c0-0.8,0-1.4-0.1-1.8s-0.1-0.7-0.2-1c-0.3-0.6-0.9-0.9-1.7-0.9c-0.4,0-0.7,0.1-1,0.2
			c-0.3,0.1-0.6,0.3-0.9,0.5c-0.3,0.2-0.5,0.5-0.6,0.9s-0.2,0.8-0.2,1.2v5.1l1.3,0.4v0.8h-4.6v-0.8l1.5-0.4v-12.5l-1.5-0.4v-0.8h3.3
			v6.3c0.4-0.6,0.9-1.1,1.5-1.4s1.3-0.5,2-0.5c0.5,0,1,0.1,1.4,0.3c0.4,0.2,0.7,0.4,1,0.8c0.3,0.4,0.4,0.9,0.5,1.5s0.2,1.5,0.2,2.6
			v4.2l1.5,0.4v0.8h-4.6v-0.8L286.4,246.2z"/>
		<path d="M296.5,238.1c-0.1,0-0.1-0.1-0.2-0.1c-0.1,0-0.1,0-0.2,0c-0.2,0-0.3,0.1-0.5,0.2c-0.2,0.1-0.3,0.3-0.5,0.6
			c-0.2,0.2-0.3,0.5-0.5,0.8c-0.2,0.4-0.3,0.9-0.4,1.4c-0.1,0.5-0.2,1-0.2,1.6v3.6l2.1,0.4v0.8h-5.4v-0.8l1.5-0.4v-8l-1.5-0.4V237
			h2.7l0.4,2.5h0.1c0.3-0.9,0.7-1.5,1.2-2c0.5-0.5,1-0.7,1.6-0.7c0.5,0,0.9,0.2,1.2,0.5c0.3,0.3,0.5,0.7,0.5,1.2
			c0,0.4-0.1,0.7-0.3,0.9c-0.2,0.2-0.5,0.3-0.8,0.3c-0.3,0-0.6-0.1-0.8-0.3c-0.2-0.2-0.3-0.5-0.3-0.8c0-0.1,0-0.1,0-0.2
			C296.4,238.4,296.5,238.3,296.5,238.1z"/>
		<path d="M303.3,243.4h-1.1c0-0.5,0.1-1,0.2-1.4c0.1-0.4,0.3-0.8,0.6-1.2c0.3-0.4,0.7-0.9,1.2-1.4c0.4-0.4,0.8-0.9,1-1.3
			c0.2-0.4,0.3-0.9,0.3-1.4c0-0.8-0.2-1.3-0.6-1.8c-0.4-0.4-0.9-0.6-1.6-0.6c-0.5,0-1,0.1-1.4,0.3s-0.6,0.4-0.6,0.7
			c0.3,0.1,0.5,0.3,0.6,0.6c0.1,0.2,0.2,0.5,0.2,0.8c0,0.4-0.1,0.6-0.4,0.9c-0.2,0.2-0.5,0.3-0.9,0.3c-0.4,0-0.7-0.2-1-0.5
			c-0.3-0.3-0.4-0.7-0.4-1.2c0-0.5,0.2-1,0.5-1.5c0.3-0.4,0.8-0.8,1.4-1s1.3-0.4,2-0.4c0.8,0,1.5,0.1,2.1,0.4
			c0.6,0.3,1.1,0.7,1.4,1.2c0.3,0.5,0.5,1.1,0.5,1.7c0,0.6-0.1,1.1-0.4,1.6c-0.3,0.5-0.7,1-1.4,1.6c-0.6,0.5-1.1,1-1.4,1.4
			c-0.3,0.4-0.5,0.7-0.7,1C303.4,242.7,303.3,243,303.3,243.4z M301.6,246.3c0-0.4,0.1-0.7,0.3-0.9c0.2-0.2,0.5-0.3,0.9-0.3
			c0.4,0,0.7,0.1,0.9,0.3c0.2,0.2,0.3,0.5,0.3,0.9c0,0.4-0.1,0.7-0.3,0.9s-0.5,0.3-0.9,0.3c-0.4,0-0.7-0.1-0.9-0.3
			S301.6,246.7,301.6,246.3z"/>
	</g>
</g>
<g>
	<g>
		<path d="M793.4,303.1c0,0.5-0.1,0.9-0.3,1.3c-0.2,0.4-0.5,0.8-0.9,1c-0.4,0.3-0.8,0.5-1.3,0.5v0.1c1,0.2,1.8,0.6,2.3,1.3
			c0.6,0.6,0.9,1.4,0.9,2.3c0,0.7-0.2,1.4-0.6,2c-0.4,0.6-0.8,1-1.4,1.3c-0.4,0.2-0.8,0.3-1.3,0.4c-0.5,0.1-1.2,0.1-2.2,0.1h-5.7
			v-0.8l1.6-0.4V301l-1.6-0.4v-0.8h6.4c1.3,0,2.4,0.3,3.1,1c0.3,0.3,0.6,0.7,0.8,1.1C793.3,302.2,793.4,302.6,793.4,303.1z
			 M786.4,300.9v4.9h2.4c0.9,0,1.5-0.2,2-0.7c0.2-0.2,0.4-0.5,0.5-0.8c0.1-0.3,0.2-0.7,0.2-1.1s-0.1-0.7-0.2-1.1
			c-0.1-0.3-0.3-0.6-0.5-0.8c-0.4-0.4-1-0.6-1.9-0.6H786.4z M788.8,306.9h-2.4v5.5h2.1c0.6,0,1.1,0,1.4-0.1c0.4-0.1,0.7-0.2,0.9-0.3
			c0.3-0.2,0.6-0.5,0.8-0.9s0.3-0.9,0.3-1.5c0-0.5-0.1-0.9-0.2-1.3c-0.2-0.4-0.4-0.6-0.6-0.9c-0.2-0.2-0.5-0.3-0.9-0.4
			S789.4,306.9,788.8,306.9z"/>
		<path d="M804.4,308.4h-6.6c0,0.9,0.1,1.7,0.4,2.3c0.3,0.6,0.6,1,1.1,1.3c0.5,0.3,1,0.4,1.5,0.4c0.6,0,1.1-0.1,1.6-0.4
			s0.9-0.6,1.3-1l0.6,0.5c-0.4,0.6-1,1.1-1.6,1.6c-0.6,0.4-1.5,0.6-2.5,0.6c-0.9,0-1.6-0.2-2.3-0.6c-0.7-0.4-1.2-0.9-1.5-1.6
			c-0.2-0.4-0.3-0.8-0.4-1.3c-0.1-0.5-0.1-1-0.1-1.5c0-1.8,0.4-3.1,1.2-4.1c0.8-1,1.9-1.5,3.3-1.5c1.3,0,2.3,0.4,3,1.2
			c0.7,0.8,1.1,1.9,1.1,3.3c0,0.1,0,0.2,0,0.4C804.5,308,804.5,308.2,804.4,308.4z M800.3,304c-1.5,0-2.4,1.2-2.5,3.5h4.8v-0.6
			c0-0.9-0.2-1.6-0.6-2.1C801.6,304.3,801.1,304,800.3,304z"/>
		<path d="M810,312.8c0.7,0,1.3-0.1,1.7-0.4c0.5-0.3,0.7-0.7,0.7-1.2c0-0.4-0.1-0.8-0.4-1c-0.3-0.3-0.6-0.5-1-0.6
			c-0.4-0.2-0.8-0.3-1.2-0.4c-0.5-0.2-1-0.4-1.5-0.6s-0.9-0.5-1.2-0.9s-0.5-0.9-0.5-1.6c0-0.9,0.3-1.6,1-2.2
			c0.7-0.6,1.6-0.8,2.8-0.8c1,0,1.8,0.2,2.4,0.6c0.6,0.4,0.9,1,0.9,1.7c0,0.4-0.1,0.7-0.3,0.9c-0.2,0.2-0.4,0.4-0.8,0.4
			c-0.3,0-0.5-0.1-0.7-0.3c-0.2-0.2-0.3-0.4-0.3-0.7c0-0.2,0.1-0.5,0.2-0.7c0.1-0.2,0.3-0.3,0.5-0.4c-0.2-0.3-0.4-0.5-0.7-0.6
			s-0.7-0.2-1.1-0.2c-0.8,0-1.3,0.1-1.7,0.4c-0.4,0.3-0.6,0.7-0.6,1.2c0,0.4,0.1,0.7,0.3,0.9s0.5,0.4,0.8,0.6
			c0.4,0.2,0.8,0.3,1.3,0.5c0.4,0.1,0.9,0.3,1.3,0.4c0.4,0.2,0.8,0.4,1.1,0.6c0.3,0.2,0.6,0.5,0.8,0.9c0.2,0.3,0.3,0.8,0.3,1.3
			c0,0.6-0.2,1.2-0.5,1.7c-0.4,0.5-0.8,0.8-1.5,1.1c-0.6,0.2-1.3,0.4-2.1,0.4c-1.1,0-2-0.2-2.7-0.7c-0.7-0.5-1-1.1-1-1.8
			c0-0.4,0.1-0.7,0.3-1c0.2-0.2,0.4-0.4,0.8-0.4c0.3,0,0.6,0.1,0.8,0.3s0.3,0.4,0.3,0.7c0,0.2-0.1,0.5-0.2,0.7
			c-0.1,0.2-0.3,0.4-0.5,0.5c0.2,0.2,0.5,0.4,0.9,0.6C808.9,312.7,809.4,312.8,810,312.8z"/>
		<path d="M815.1,304.2v-0.7l1.8-0.3l0.2-2.4l1.6-0.2v2.6h2.4v1h-2.4v6.8c0,0.4,0,0.7,0,0.9s0,0.3,0.1,0.4c0,0.1,0.1,0.1,0.2,0.2
			s0.3,0,0.5,0h1.3v0.6c-0.6,0.2-1.1,0.4-1.6,0.5c-0.5,0.1-0.8,0.2-1.1,0.2c-0.6,0-0.9-0.2-1.1-0.7c-0.1-0.2-0.1-0.3-0.1-0.6
			c0-0.2,0-0.6,0-1.1v-7.1H815.1z"/>
		<path d="M822.1,311.2c0-1,0.5-1.8,1.4-2.3c0.9-0.6,2.5-1,4.6-1.3c-0.1-0.7-0.1-1.3-0.2-1.7s-0.2-0.8-0.3-1
			c-0.2-0.3-0.4-0.6-0.7-0.7c-0.3-0.2-0.7-0.2-1-0.2c-0.4,0-0.7,0.1-1,0.2s-0.5,0.3-0.6,0.5c0.2,0.1,0.3,0.3,0.4,0.5
			c0.1,0.2,0.1,0.4,0.1,0.6c0,0.3-0.1,0.6-0.3,0.8s-0.5,0.3-0.8,0.3c-0.3,0-0.6-0.1-0.8-0.3c-0.2-0.2-0.3-0.5-0.3-0.9
			c0-0.5,0.2-1,0.6-1.3s0.8-0.6,1.4-0.8s1.1-0.3,1.7-0.3c0.5,0,1,0.1,1.4,0.2c0.4,0.2,0.8,0.4,1.1,0.7c0.8,0.8,1.2,2.2,1.2,4.2v2.8
			c0,0.6,0,1.1,0.1,1.3c0.1,0.2,0.3,0.4,0.5,0.4h0.9v0.6c-0.9,0.4-1.6,0.6-2.1,0.6c-0.4,0-0.7-0.1-0.8-0.4c-0.1-0.3-0.2-0.8-0.2-1.6
			h-0.1c-0.4,0.6-0.9,1.2-1.6,1.5c-0.6,0.4-1.3,0.6-2.1,0.6c-0.8,0-1.4-0.2-1.9-0.6S822.1,312,822.1,311.2z M823.1,300.1
			c0-0.4,0.1-0.6,0.3-0.8s0.5-0.3,0.8-0.3s0.6,0.1,0.8,0.3c0.2,0.2,0.3,0.5,0.3,0.8c0,0.3-0.1,0.6-0.3,0.8c-0.2,0.2-0.5,0.3-0.8,0.3
			c-0.3,0-0.6-0.1-0.8-0.3C823.2,300.7,823.1,300.4,823.1,300.1z M825.5,312.5c0.4,0,0.7-0.1,1.1-0.3s0.7-0.4,1-0.8
			c0.2-0.3,0.4-0.6,0.4-0.9c0.1-0.3,0.1-0.8,0.1-1.2c0-0.2,0-0.4,0-0.6s0-0.4-0.1-0.6c-1,0.2-1.8,0.4-2.4,0.7
			c-0.6,0.2-1,0.5-1.2,0.8c-0.2,0.3-0.4,0.7-0.4,1.2c0,0.5,0.1,1,0.4,1.3S825,312.5,825.5,312.5z M827.5,300.1
			c0-0.4,0.1-0.6,0.3-0.8s0.5-0.3,0.8-0.3s0.6,0.1,0.8,0.3c0.2,0.2,0.3,0.5,0.3,0.8c0,0.3-0.1,0.6-0.3,0.8c-0.2,0.2-0.5,0.3-0.8,0.3
			c-0.3,0-0.6-0.1-0.8-0.3C827.6,300.7,827.5,300.4,827.5,300.1z"/>
		<path d="M838,304.3c-0.1,0-0.1-0.1-0.2-0.1c-0.1,0-0.1,0-0.2,0c-0.2,0-0.3,0.1-0.5,0.2c-0.2,0.1-0.3,0.3-0.5,0.6
			c-0.2,0.2-0.3,0.5-0.5,0.8c-0.2,0.4-0.3,0.9-0.4,1.4c-0.1,0.5-0.2,1-0.2,1.6v3.6l2.1,0.4v0.8h-5.4v-0.8l1.5-0.4v-8l-1.5-0.4v-0.8
			h2.7l0.4,2.5h0.1c0.3-0.9,0.7-1.5,1.2-2s1-0.7,1.6-0.7c0.5,0,0.9,0.2,1.2,0.5s0.5,0.7,0.5,1.2c0,0.4-0.1,0.7-0.3,0.9
			c-0.2,0.2-0.5,0.3-0.8,0.3c-0.3,0-0.6-0.1-0.8-0.3c-0.2-0.2-0.3-0.5-0.3-0.8c0-0.1,0-0.1,0-0.2S837.9,304.4,838,304.3z"/>
		<path d="M847.3,312.7l1.1-0.4l-2.9-4l-1.4,1.2v2.7l1.5,0.4v0.8h-4.8v-0.8l1.5-0.4v-12.5l-1.5-0.4v-0.8h3.3v10.1l4-4.4l-1.3-0.4
			v-0.8h4.1v0.8l-1.4,0.4l-2.9,2.9l3.8,5.1l1,0.3v0.8h-4.2V312.7z"/>
		<path d="M851.8,304.2v-0.7l1.8-0.3l0.2-2.4l1.6-0.2v2.6h2.4v1h-2.4v6.8c0,0.4,0,0.7,0,0.9s0,0.3,0.1,0.4c0,0.1,0.1,0.1,0.2,0.2
			s0.3,0,0.5,0h1.3v0.6c-0.6,0.2-1.1,0.4-1.6,0.5c-0.5,0.1-0.8,0.2-1.1,0.2c-0.6,0-0.9-0.2-1.1-0.7c-0.1-0.2-0.1-0.3-0.1-0.6
			c0-0.2,0-0.6,0-1.1v-7.1H851.8z"/>
		<path d="M862.6,309.6h-1.1c0-0.5,0.1-1,0.2-1.4s0.3-0.8,0.6-1.2c0.3-0.4,0.7-0.9,1.2-1.4c0.4-0.4,0.8-0.9,1-1.3
			c0.2-0.4,0.3-0.9,0.3-1.4c0-0.8-0.2-1.3-0.6-1.8c-0.4-0.4-0.9-0.6-1.6-0.6c-0.5,0-1,0.1-1.4,0.3c-0.4,0.2-0.6,0.4-0.6,0.7
			c0.3,0.1,0.5,0.3,0.6,0.6c0.1,0.2,0.2,0.5,0.2,0.8c0,0.4-0.1,0.6-0.4,0.9c-0.2,0.2-0.5,0.3-0.9,0.3c-0.4,0-0.7-0.2-1-0.5
			c-0.3-0.3-0.4-0.7-0.4-1.2c0-0.5,0.2-1,0.5-1.5c0.3-0.4,0.8-0.8,1.4-1s1.3-0.4,2-0.4c0.8,0,1.5,0.1,2.1,0.4s1.1,0.7,1.4,1.2
			c0.3,0.5,0.5,1.1,0.5,1.7c0,0.6-0.1,1.1-0.4,1.6s-0.7,1-1.4,1.6c-0.6,0.5-1.1,1-1.4,1.4c-0.3,0.4-0.5,0.7-0.7,1
			C862.7,308.8,862.6,309.2,862.6,309.6z M860.9,312.5c0-0.4,0.1-0.7,0.3-0.9c0.2-0.2,0.5-0.3,0.9-0.3c0.4,0,0.7,0.1,0.9,0.3
			c0.2,0.2,0.3,0.5,0.3,0.9c0,0.4-0.1,0.7-0.3,0.9c-0.2,0.2-0.5,0.3-0.9,0.3s-0.7-0.1-0.9-0.3C861,313.1,860.9,312.8,860.9,312.5z"
			/>
	</g>
</g>
<g>
	<g>
		<path d="M971.2,78.3c-0.7,0-1.4-0.1-2-0.3s-1.1-0.6-1.5-1l-0.2,1.1h-1.1v-4.3h1.2c0.1,1.2,0.4,2.1,0.9,2.6
			c0.5,0.6,1.3,0.8,2.4,0.8c0.9,0,1.6-0.2,2-0.5c0.5-0.3,0.7-0.9,0.7-1.5c0-0.5-0.1-1-0.4-1.4c-0.3-0.4-0.7-0.7-1.2-1
			c-0.5-0.3-1.1-0.6-1.8-0.9c-0.8-0.3-1.5-0.7-2-1c-0.6-0.3-1-0.7-1.3-1.2s-0.4-1.1-0.4-1.8c0-1.2,0.4-2.1,1.1-2.8s1.8-1,3-1
			c1.3,0,2.3,0.4,3.1,1.1l0.2-0.9h1.1v4.3h-1.1c0-1.2-0.2-2.1-0.7-2.7c-0.5-0.6-1.2-0.8-2.1-0.8c-1.7,0-2.6,0.8-2.6,2.4
			c0,0.4,0.1,0.8,0.2,1c0.2,0.3,0.4,0.5,0.8,0.8c0.4,0.2,1,0.5,1.7,0.8c1.1,0.4,1.9,0.9,2.5,1.3c0.6,0.4,1.1,0.9,1.4,1.4
			c0.3,0.5,0.4,1.1,0.4,1.7c0,0.8-0.2,1.4-0.5,2c-0.4,0.6-0.9,1-1.5,1.3C972.8,78.1,972,78.3,971.2,78.3z"/>
		<path d="M978.6,69l-1.5-0.4v-0.8h3.3v9.1l1.5,0.4v0.8h-4.8v-0.8l1.5-0.4V69z M978.3,64.8c0-0.4,0.1-0.7,0.3-0.9
			c0.2-0.2,0.5-0.3,0.9-0.3c0.4,0,0.7,0.1,0.9,0.3c0.2,0.2,0.3,0.5,0.3,0.9c0,0.4-0.1,0.6-0.3,0.9c-0.2,0.2-0.5,0.3-0.9,0.3
			s-0.7-0.1-0.9-0.3S978.3,65.1,978.3,64.8z"/>
		<path d="M988.1,67.6c0.7,0,1.4,0.1,1.9,0.4s1,0.6,1.3,1s0.4,1,0.4,1.6c0,0.5-0.1,0.8-0.3,1.1s-0.5,0.4-0.9,0.4
			c-0.4,0-0.6-0.1-0.8-0.3c-0.2-0.2-0.3-0.5-0.3-0.8c0-0.3,0.1-0.6,0.3-0.8s0.4-0.4,0.7-0.5c-0.2-0.4-0.5-0.6-0.8-0.8
			s-0.8-0.2-1.3-0.2c-1,0-1.8,0.3-2.3,1c-0.5,0.7-0.7,1.7-0.7,3.2c0,0.6,0,1.2,0.1,1.6c0.1,0.4,0.2,0.8,0.4,1.1
			c0.3,0.5,0.6,0.8,1,1.1s0.9,0.4,1.5,0.4c0.6,0,1.1-0.1,1.7-0.4c0.5-0.3,1-0.6,1.4-1.1l0.6,0.5c-0.5,0.8-1.1,1.3-1.7,1.7
			s-1.4,0.6-2.3,0.6c-0.9,0-1.7-0.2-2.3-0.5c-0.7-0.4-1.2-0.9-1.5-1.6c-0.5-0.8-0.7-1.9-0.7-3.1c0-1.1,0.2-2.1,0.6-2.9
			c0.4-0.8,1-1.4,1.7-1.9S987.1,67.6,988.1,67.6z"/>
		<path d="M1001.1,76.9v-4.2c0-0.8,0-1.4-0.1-1.8c0-0.4-0.1-0.7-0.2-0.9c-0.3-0.6-0.9-0.9-1.7-0.9c-0.4,0-0.7,0.1-1,0.2
			c-0.3,0.1-0.6,0.3-0.9,0.5c-0.3,0.2-0.5,0.5-0.6,0.9c-0.1,0.3-0.2,0.8-0.2,1.2v5.1l1.3,0.4v0.8H993v-0.8l1.5-0.4V64.4L993,64v-0.8
			h3.3v6.3c0.4-0.6,0.9-1.1,1.5-1.4c0.6-0.4,1.3-0.5,2-0.5c0.5,0,1,0.1,1.4,0.3c0.4,0.2,0.7,0.4,1,0.8c0.3,0.4,0.4,0.9,0.5,1.5
			c0.1,0.6,0.2,1.5,0.2,2.6v4.2l1.5,0.4v0.8h-4.6v-0.8L1001.1,76.9z"/>
		<path d="M1014.2,73.1h-6.6c0,0.9,0.1,1.7,0.4,2.3c0.3,0.6,0.6,1,1.1,1.3c0.5,0.3,1,0.4,1.5,0.4c0.6,0,1.1-0.1,1.6-0.4
			s0.9-0.6,1.3-1l0.6,0.5c-0.4,0.6-1,1.1-1.6,1.6c-0.6,0.4-1.5,0.6-2.5,0.6c-0.9,0-1.6-0.2-2.3-0.6c-0.7-0.4-1.2-0.9-1.5-1.6
			c-0.2-0.4-0.3-0.8-0.4-1.3c-0.1-0.5-0.1-1-0.1-1.5c0-1.8,0.4-3.1,1.2-4.1c0.8-1,1.9-1.5,3.3-1.5c1.3,0,2.3,0.4,3,1.2
			c0.7,0.8,1.1,1.9,1.1,3.3c0,0.1,0,0.2,0,0.4C1014.3,72.6,1014.3,72.8,1014.2,73.1z M1010.1,68.7c-1.5,0-2.4,1.2-2.5,3.5h4.8v-0.6
			c0-0.9-0.2-1.6-0.6-2.1C1011.4,68.9,1010.9,68.7,1010.1,68.7z"/>
		<path d="M1021.5,68.9c-0.1,0-0.1-0.1-0.2-0.1c-0.1,0-0.1,0-0.2,0c-0.2,0-0.3,0.1-0.5,0.2c-0.2,0.1-0.3,0.3-0.5,0.6
			c-0.2,0.2-0.3,0.5-0.5,0.8c-0.2,0.4-0.3,0.9-0.4,1.4c-0.1,0.5-0.2,1-0.2,1.6v3.6l2.1,0.4v0.8h-5.4v-0.8l1.5-0.4v-8l-1.5-0.4v-0.8
			h2.7l0.4,2.5h0.1c0.3-0.9,0.7-1.5,1.2-2c0.5-0.5,1-0.7,1.6-0.7c0.5,0,0.9,0.2,1.2,0.5s0.5,0.7,0.5,1.2c0,0.4-0.1,0.7-0.3,0.9
			s-0.5,0.3-0.8,0.3c-0.3,0-0.6-0.1-0.8-0.3c-0.2-0.2-0.3-0.5-0.3-0.8c0-0.1,0-0.1,0-0.2C1021.5,69.1,1021.5,69,1021.5,68.9z"/>
		<path d="M1033.3,73.1h-6.6c0,0.9,0.1,1.7,0.4,2.3c0.3,0.6,0.6,1,1.1,1.3c0.5,0.3,1,0.4,1.5,0.4c0.6,0,1.1-0.1,1.6-0.4
			s0.9-0.6,1.3-1l0.6,0.5c-0.4,0.6-1,1.1-1.6,1.6c-0.6,0.4-1.5,0.6-2.5,0.6c-0.9,0-1.6-0.2-2.3-0.6c-0.7-0.4-1.2-0.9-1.5-1.6
			c-0.2-0.4-0.3-0.8-0.4-1.3c-0.1-0.5-0.1-1-0.1-1.5c0-1.8,0.4-3.1,1.2-4.1c0.8-1,1.9-1.5,3.3-1.5c1.3,0,2.3,0.4,3,1.2
			c0.7,0.8,1.1,1.9,1.1,3.3c0,0.1,0,0.2,0,0.4C1033.3,72.6,1033.3,72.8,1033.3,73.1z M1029.2,68.7c-1.5,0-2.4,1.2-2.5,3.5h4.8v-0.6
			c0-0.9-0.2-1.6-0.6-2.1C1030.5,68.9,1029.9,68.7,1029.2,68.7z"/>
		<path d="M1040.6,68.9c-0.1,0-0.1-0.1-0.2-0.1c-0.1,0-0.1,0-0.2,0c-0.2,0-0.3,0.1-0.5,0.2c-0.2,0.1-0.3,0.3-0.5,0.6
			c-0.2,0.2-0.3,0.5-0.5,0.8c-0.2,0.4-0.3,0.9-0.4,1.4c-0.1,0.5-0.2,1-0.2,1.6v3.6l2.1,0.4v0.8h-5.4v-0.8l1.5-0.4v-8l-1.5-0.4v-0.8
			h2.7l0.4,2.5h0.1c0.3-0.9,0.7-1.5,1.2-2c0.5-0.5,1-0.7,1.6-0.7c0.5,0,0.9,0.2,1.2,0.5s0.5,0.7,0.5,1.2c0,0.4-0.1,0.7-0.3,0.9
			s-0.5,0.3-0.8,0.3c-0.3,0-0.6-0.1-0.8-0.3c-0.2-0.2-0.3-0.5-0.3-0.8c0-0.1,0-0.1,0-0.2C1040.5,69.1,1040.5,69,1040.6,68.9z"/>
		<path d="M1047.4,74.2h-1.1c0-0.5,0.1-1,0.2-1.4s0.3-0.8,0.6-1.2c0.3-0.4,0.7-0.9,1.2-1.4c0.4-0.4,0.8-0.9,1-1.3
			c0.2-0.4,0.3-0.9,0.3-1.4c0-0.8-0.2-1.3-0.6-1.8s-0.9-0.6-1.6-0.6c-0.5,0-1,0.1-1.4,0.3c-0.4,0.2-0.6,0.4-0.6,0.7
			c0.3,0.1,0.5,0.3,0.6,0.6s0.2,0.5,0.2,0.8c0,0.4-0.1,0.6-0.4,0.9s-0.5,0.3-0.9,0.3c-0.4,0-0.7-0.2-1-0.5c-0.3-0.3-0.4-0.7-0.4-1.2
			c0-0.5,0.2-1,0.5-1.5c0.3-0.4,0.8-0.8,1.4-1c0.6-0.3,1.3-0.4,2-0.4c0.8,0,1.5,0.1,2.1,0.4c0.6,0.3,1.1,0.7,1.4,1.2
			c0.3,0.5,0.5,1.1,0.5,1.7c0,0.6-0.1,1.1-0.4,1.6c-0.3,0.5-0.7,1-1.4,1.6c-0.6,0.5-1.1,1-1.4,1.4c-0.3,0.4-0.5,0.7-0.7,1
			C1047.5,73.5,1047.4,73.8,1047.4,74.2z M1045.7,77.1c0-0.4,0.1-0.7,0.3-0.9c0.2-0.2,0.5-0.3,0.9-0.3c0.4,0,0.7,0.1,0.9,0.3
			s0.3,0.5,0.3,0.9c0,0.4-0.1,0.7-0.3,0.9c-0.2,0.2-0.5,0.3-0.9,0.3s-0.7-0.1-0.9-0.3C1045.8,77.7,1045.7,77.5,1045.7,77.1z"/>
	</g>
</g>
</svg>
